<?xml version="1.0" encoding="utf-8" standalone="no"?>
<!DOCTYPE svg PUBLIC "-//W3C//DTD SVG 1.1//EN"
  "http://www.w3.org/Graphics/SVG/1.1/DTD/svg11.dtd">
<svg xmlns:xlink="http://www.w3.org/1999/xlink" width="576pt" height="576pt" viewBox="0 0 576 576" xmlns="http://www.w3.org/2000/svg" version="1.1">
 <metadata>
  <rdf:RDF xmlns:dc="http://purl.org/dc/elements/1.1/" xmlns:cc="http://creativecommons.org/ns#" xmlns:rdf="http://www.w3.org/1999/02/22-rdf-syntax-ns#">
   <cc:Work>
    <dc:type rdf:resource="http://purl.org/dc/dcmitype/StillImage"/>
    <dc:date>2026-05-17T02:33:09.976556</dc:date>
    <dc:format>image/svg+xml</dc:format>
    <dc:creator>
     <cc:Agent>
      <dc:title>Matplotlib v3.10.9, https://matplotlib.org/</dc:title>
     </cc:Agent>
    </dc:creator>
   </cc:Work>
  </rdf:RDF>
 </metadata>
 <defs>
  <style type="text/css">*{stroke-linejoin: round; stroke-linecap: butt}</style>
 </defs>
 <g id="figure_1">
  <g id="patch_1">
   <path d="M 0 576 
L 576 576 
L 576 0 
L 0 0 
z
" style="fill: #ffffff"/>
  </g>
  <g id="axes_1">
   <g id="patch_2">
    <path d="M 72 512.64 
L 518.4 512.64 
L 518.4 69.12 
L 72 69.12 
z
" style="fill: #ffffff"/>
   </g>
   <g id="matplotlib.axis_1">
    <g id="xtick_1">
     <g id="line2d_1">
      <defs>
       <path id="m10f7858138" d="M 0 0 
L 0 3.5 
" style="stroke: #000000; stroke-width: 0.8"/>
      </defs>
      <g>
       <use xlink:href="#m10f7858138" x="80.48626" y="512.64" style="stroke: #000000; stroke-width: 0.8"/>
      </g>
     </g>
     <g id="text_1">
      <!-- 0 -->
      <g transform="translate(77.30501 527.238438) scale(0.1 -0.1)">
       <defs>
        <path id="DejaVuSans-30" d="M 2034 4250 
Q 1547 4250 1301 3770 
Q 1056 3291 1056 2328 
Q 1056 1369 1301 889 
Q 1547 409 2034 409 
Q 2525 409 2770 889 
Q 3016 1369 3016 2328 
Q 3016 3291 2770 3770 
Q 2525 4250 2034 4250 
z
M 2034 4750 
Q 2819 4750 3233 4129 
Q 3647 3509 3647 2328 
Q 3647 1150 3233 529 
Q 2819 -91 2034 -91 
Q 1250 -91 836 529 
Q 422 1150 422 2328 
Q 422 3509 836 4129 
Q 1250 4750 2034 4750 
z
" transform="scale(0.015625)"/>
       </defs>
       <use xlink:href="#DejaVuSans-30"/>
      </g>
     </g>
    </g>
    <g id="xtick_2">
     <g id="line2d_2">
      <g>
       <use xlink:href="#m10f7858138" x="132.80673" y="512.64" style="stroke: #000000; stroke-width: 0.8"/>
      </g>
     </g>
     <g id="text_2">
      <!-- 500 -->
      <g transform="translate(123.26298 527.238438) scale(0.1 -0.1)">
       <defs>
        <path id="DejaVuSans-35" d="M 691 4666 
L 3169 4666 
L 3169 4134 
L 1269 4134 
L 1269 2991 
Q 1406 3038 1543 3061 
Q 1681 3084 1819 3084 
Q 2600 3084 3056 2656 
Q 3513 2228 3513 1497 
Q 3513 744 3044 326 
Q 2575 -91 1722 -91 
Q 1428 -91 1123 -41 
Q 819 9 494 109 
L 494 744 
Q 775 591 1075 516 
Q 1375 441 1709 441 
Q 2250 441 2565 725 
Q 2881 1009 2881 1497 
Q 2881 1984 2565 2268 
Q 2250 2553 1709 2553 
Q 1456 2553 1204 2497 
Q 953 2441 691 2322 
L 691 4666 
z
" transform="scale(0.015625)"/>
       </defs>
       <use xlink:href="#DejaVuSans-35"/>
       <use xlink:href="#DejaVuSans-30" transform="translate(63.623047 0)"/>
       <use xlink:href="#DejaVuSans-30" transform="translate(127.246094 0)"/>
      </g>
     </g>
    </g>
    <g id="xtick_3">
     <g id="line2d_3">
      <g>
       <use xlink:href="#m10f7858138" x="185.127201" y="512.64" style="stroke: #000000; stroke-width: 0.8"/>
      </g>
     </g>
     <g id="text_3">
      <!-- 1000 -->
      <g transform="translate(172.402201 527.238438) scale(0.1 -0.1)">
       <defs>
        <path id="DejaVuSans-31" d="M 794 531 
L 1825 531 
L 1825 4091 
L 703 3866 
L 703 4441 
L 1819 4666 
L 2450 4666 
L 2450 531 
L 3481 531 
L 3481 0 
L 794 0 
L 794 531 
z
" transform="scale(0.015625)"/>
       </defs>
       <use xlink:href="#DejaVuSans-31"/>
       <use xlink:href="#DejaVuSans-30" transform="translate(63.623047 0)"/>
       <use xlink:href="#DejaVuSans-30" transform="translate(127.246094 0)"/>
       <use xlink:href="#DejaVuSans-30" transform="translate(190.869141 0)"/>
      </g>
     </g>
    </g>
    <g id="xtick_4">
     <g id="line2d_4">
      <g>
       <use xlink:href="#m10f7858138" x="237.447671" y="512.64" style="stroke: #000000; stroke-width: 0.8"/>
      </g>
     </g>
     <g id="text_4">
      <!-- 1500 -->
      <g transform="translate(224.722671 527.238438) scale(0.1 -0.1)">
       <use xlink:href="#DejaVuSans-31"/>
       <use xlink:href="#DejaVuSans-35" transform="translate(63.623047 0)"/>
       <use xlink:href="#DejaVuSans-30" transform="translate(127.246094 0)"/>
       <use xlink:href="#DejaVuSans-30" transform="translate(190.869141 0)"/>
      </g>
     </g>
    </g>
    <g id="xtick_5">
     <g id="line2d_5">
      <g>
       <use xlink:href="#m10f7858138" x="289.768141" y="512.64" style="stroke: #000000; stroke-width: 0.8"/>
      </g>
     </g>
     <g id="text_5">
      <!-- 2000 -->
      <g transform="translate(277.043141 527.238438) scale(0.1 -0.1)">
       <defs>
        <path id="DejaVuSans-32" d="M 1228 531 
L 3431 531 
L 3431 0 
L 469 0 
L 469 531 
Q 828 903 1448 1529 
Q 2069 2156 2228 2338 
Q 2531 2678 2651 2914 
Q 2772 3150 2772 3378 
Q 2772 3750 2511 3984 
Q 2250 4219 1831 4219 
Q 1534 4219 1204 4116 
Q 875 4013 500 3803 
L 500 4441 
Q 881 4594 1212 4672 
Q 1544 4750 1819 4750 
Q 2544 4750 2975 4387 
Q 3406 4025 3406 3419 
Q 3406 3131 3298 2873 
Q 3191 2616 2906 2266 
Q 2828 2175 2409 1742 
Q 1991 1309 1228 531 
z
" transform="scale(0.015625)"/>
       </defs>
       <use xlink:href="#DejaVuSans-32"/>
       <use xlink:href="#DejaVuSans-30" transform="translate(63.623047 0)"/>
       <use xlink:href="#DejaVuSans-30" transform="translate(127.246094 0)"/>
       <use xlink:href="#DejaVuSans-30" transform="translate(190.869141 0)"/>
      </g>
     </g>
    </g>
    <g id="xtick_6">
     <g id="line2d_6">
      <g>
       <use xlink:href="#m10f7858138" x="342.088611" y="512.64" style="stroke: #000000; stroke-width: 0.8"/>
      </g>
     </g>
     <g id="text_6">
      <!-- 2500 -->
      <g transform="translate(329.363611 527.238438) scale(0.1 -0.1)">
       <use xlink:href="#DejaVuSans-32"/>
       <use xlink:href="#DejaVuSans-35" transform="translate(63.623047 0)"/>
       <use xlink:href="#DejaVuSans-30" transform="translate(127.246094 0)"/>
       <use xlink:href="#DejaVuSans-30" transform="translate(190.869141 0)"/>
      </g>
     </g>
    </g>
    <g id="xtick_7">
     <g id="line2d_7">
      <g>
       <use xlink:href="#m10f7858138" x="394.409082" y="512.64" style="stroke: #000000; stroke-width: 0.8"/>
      </g>
     </g>
     <g id="text_7">
      <!-- 3000 -->
      <g transform="translate(381.684082 527.238438) scale(0.1 -0.1)">
       <defs>
        <path id="DejaVuSans-33" d="M 2597 2516 
Q 3050 2419 3304 2112 
Q 3559 1806 3559 1356 
Q 3559 666 3084 287 
Q 2609 -91 1734 -91 
Q 1441 -91 1130 -33 
Q 819 25 488 141 
L 488 750 
Q 750 597 1062 519 
Q 1375 441 1716 441 
Q 2309 441 2620 675 
Q 2931 909 2931 1356 
Q 2931 1769 2642 2001 
Q 2353 2234 1838 2234 
L 1294 2234 
L 1294 2753 
L 1863 2753 
Q 2328 2753 2575 2939 
Q 2822 3125 2822 3475 
Q 2822 3834 2567 4026 
Q 2313 4219 1838 4219 
Q 1578 4219 1281 4162 
Q 984 4106 628 3988 
L 628 4550 
Q 988 4650 1302 4700 
Q 1616 4750 1894 4750 
Q 2613 4750 3031 4423 
Q 3450 4097 3450 3541 
Q 3450 3153 3228 2886 
Q 3006 2619 2597 2516 
z
" transform="scale(0.015625)"/>
       </defs>
       <use xlink:href="#DejaVuSans-33"/>
       <use xlink:href="#DejaVuSans-30" transform="translate(63.623047 0)"/>
       <use xlink:href="#DejaVuSans-30" transform="translate(127.246094 0)"/>
       <use xlink:href="#DejaVuSans-30" transform="translate(190.869141 0)"/>
      </g>
     </g>
    </g>
    <g id="xtick_8">
     <g id="line2d_8">
      <g>
       <use xlink:href="#m10f7858138" x="446.729552" y="512.64" style="stroke: #000000; stroke-width: 0.8"/>
      </g>
     </g>
     <g id="text_8">
      <!-- 3500 -->
      <g transform="translate(434.004552 527.238438) scale(0.1 -0.1)">
       <use xlink:href="#DejaVuSans-33"/>
       <use xlink:href="#DejaVuSans-35" transform="translate(63.623047 0)"/>
       <use xlink:href="#DejaVuSans-30" transform="translate(127.246094 0)"/>
       <use xlink:href="#DejaVuSans-30" transform="translate(190.869141 0)"/>
      </g>
     </g>
    </g>
    <g id="xtick_9">
     <g id="line2d_9">
      <g>
       <use xlink:href="#m10f7858138" x="499.050022" y="512.64" style="stroke: #000000; stroke-width: 0.8"/>
      </g>
     </g>
     <g id="text_9">
      <!-- 4000 -->
      <g transform="translate(486.325022 527.238438) scale(0.1 -0.1)">
       <defs>
        <path id="DejaVuSans-34" d="M 2419 4116 
L 825 1625 
L 2419 1625 
L 2419 4116 
z
M 2253 4666 
L 3047 4666 
L 3047 1625 
L 3713 1625 
L 3713 1100 
L 3047 1100 
L 3047 0 
L 2419 0 
L 2419 1100 
L 313 1100 
L 313 1709 
L 2253 4666 
z
" transform="scale(0.015625)"/>
       </defs>
       <use xlink:href="#DejaVuSans-34"/>
       <use xlink:href="#DejaVuSans-30" transform="translate(63.623047 0)"/>
       <use xlink:href="#DejaVuSans-30" transform="translate(127.246094 0)"/>
       <use xlink:href="#DejaVuSans-30" transform="translate(190.869141 0)"/>
      </g>
     </g>
    </g>
    <g id="text_10">
     <!-- Time (ms) -->
     <g transform="translate(257.401172 544.715781) scale(0.15 -0.15)">
      <defs>
       <path id="DejaVuSans-54" d="M -19 4666 
L 3928 4666 
L 3928 4134 
L 2272 4134 
L 2272 0 
L 1638 0 
L 1638 4134 
L -19 4134 
L -19 4666 
z
" transform="scale(0.015625)"/>
       <path id="DejaVuSans-69" d="M 603 3500 
L 1178 3500 
L 1178 0 
L 603 0 
L 603 3500 
z
M 603 4863 
L 1178 4863 
L 1178 4134 
L 603 4134 
L 603 4863 
z
" transform="scale(0.015625)"/>
       <path id="DejaVuSans-6d" d="M 3328 2828 
Q 3544 3216 3844 3400 
Q 4144 3584 4550 3584 
Q 5097 3584 5394 3201 
Q 5691 2819 5691 2113 
L 5691 0 
L 5113 0 
L 5113 2094 
Q 5113 2597 4934 2840 
Q 4756 3084 4391 3084 
Q 3944 3084 3684 2787 
Q 3425 2491 3425 1978 
L 3425 0 
L 2847 0 
L 2847 2094 
Q 2847 2600 2669 2842 
Q 2491 3084 2119 3084 
Q 1678 3084 1418 2786 
Q 1159 2488 1159 1978 
L 1159 0 
L 581 0 
L 581 3500 
L 1159 3500 
L 1159 2956 
Q 1356 3278 1631 3431 
Q 1906 3584 2284 3584 
Q 2666 3584 2933 3390 
Q 3200 3197 3328 2828 
z
" transform="scale(0.015625)"/>
       <path id="DejaVuSans-65" d="M 3597 1894 
L 3597 1613 
L 953 1613 
Q 991 1019 1311 708 
Q 1631 397 2203 397 
Q 2534 397 2845 478 
Q 3156 559 3463 722 
L 3463 178 
Q 3153 47 2828 -22 
Q 2503 -91 2169 -91 
Q 1331 -91 842 396 
Q 353 884 353 1716 
Q 353 2575 817 3079 
Q 1281 3584 2069 3584 
Q 2775 3584 3186 3129 
Q 3597 2675 3597 1894 
z
M 3022 2063 
Q 3016 2534 2758 2815 
Q 2500 3097 2075 3097 
Q 1594 3097 1305 2825 
Q 1016 2553 972 2059 
L 3022 2063 
z
" transform="scale(0.015625)"/>
       <path id="DejaVuSans-20" transform="scale(0.015625)"/>
       <path id="DejaVuSans-28" d="M 1984 4856 
Q 1566 4138 1362 3434 
Q 1159 2731 1159 2009 
Q 1159 1288 1364 580 
Q 1569 -128 1984 -844 
L 1484 -844 
Q 1016 -109 783 600 
Q 550 1309 550 2009 
Q 550 2706 781 3412 
Q 1013 4119 1484 4856 
L 1984 4856 
z
" transform="scale(0.015625)"/>
       <path id="DejaVuSans-73" d="M 2834 3397 
L 2834 2853 
Q 2591 2978 2328 3040 
Q 2066 3103 1784 3103 
Q 1356 3103 1142 2972 
Q 928 2841 928 2578 
Q 928 2378 1081 2264 
Q 1234 2150 1697 2047 
L 1894 2003 
Q 2506 1872 2764 1633 
Q 3022 1394 3022 966 
Q 3022 478 2636 193 
Q 2250 -91 1575 -91 
Q 1294 -91 989 -36 
Q 684 19 347 128 
L 347 722 
Q 666 556 975 473 
Q 1284 391 1588 391 
Q 1994 391 2212 530 
Q 2431 669 2431 922 
Q 2431 1156 2273 1281 
Q 2116 1406 1581 1522 
L 1381 1569 
Q 847 1681 609 1914 
Q 372 2147 372 2553 
Q 372 3047 722 3315 
Q 1072 3584 1716 3584 
Q 2034 3584 2315 3537 
Q 2597 3491 2834 3397 
z
" transform="scale(0.015625)"/>
       <path id="DejaVuSans-29" d="M 513 4856 
L 1013 4856 
Q 1481 4119 1714 3412 
Q 1947 2706 1947 2009 
Q 1947 1309 1714 600 
Q 1481 -109 1013 -844 
L 513 -844 
Q 928 -128 1133 580 
Q 1338 1288 1338 2009 
Q 1338 2731 1133 3434 
Q 928 4138 513 4856 
z
" transform="scale(0.015625)"/>
      </defs>
      <use xlink:href="#DejaVuSans-54"/>
      <use xlink:href="#DejaVuSans-69" transform="translate(57.958984 0)"/>
      <use xlink:href="#DejaVuSans-6d" transform="translate(85.742188 0)"/>
      <use xlink:href="#DejaVuSans-65" transform="translate(183.154297 0)"/>
      <use xlink:href="#DejaVuSans-20" transform="translate(244.677734 0)"/>
      <use xlink:href="#DejaVuSans-28" transform="translate(276.464844 0)"/>
      <use xlink:href="#DejaVuSans-6d" transform="translate(315.478516 0)"/>
      <use xlink:href="#DejaVuSans-73" transform="translate(412.890625 0)"/>
      <use xlink:href="#DejaVuSans-29" transform="translate(464.990234 0)"/>
     </g>
    </g>
   </g>
   <g id="matplotlib.axis_2">
    <g id="ytick_1">
     <g id="line2d_10">
      <defs>
       <path id="mba72e075b3" d="M 0 0 
L -3.5 0 
" style="stroke: #000000; stroke-width: 0.8"/>
      </defs>
      <g>
       <use xlink:href="#mba72e075b3" x="72" y="512.64" style="stroke: #000000; stroke-width: 0.8"/>
      </g>
     </g>
     <g id="text_11">
      <!-- 0.90 -->
      <g transform="translate(42.734375 516.439219) scale(0.1 -0.1)">
       <defs>
        <path id="DejaVuSans-2e" d="M 684 794 
L 1344 794 
L 1344 0 
L 684 0 
L 684 794 
z
" transform="scale(0.015625)"/>
        <path id="DejaVuSans-39" d="M 703 97 
L 703 672 
Q 941 559 1184 500 
Q 1428 441 1663 441 
Q 2288 441 2617 861 
Q 2947 1281 2994 2138 
Q 2813 1869 2534 1725 
Q 2256 1581 1919 1581 
Q 1219 1581 811 2004 
Q 403 2428 403 3163 
Q 403 3881 828 4315 
Q 1253 4750 1959 4750 
Q 2769 4750 3195 4129 
Q 3622 3509 3622 2328 
Q 3622 1225 3098 567 
Q 2575 -91 1691 -91 
Q 1453 -91 1209 -44 
Q 966 3 703 97 
z
M 1959 2075 
Q 2384 2075 2632 2365 
Q 2881 2656 2881 3163 
Q 2881 3666 2632 3958 
Q 2384 4250 1959 4250 
Q 1534 4250 1286 3958 
Q 1038 3666 1038 3163 
Q 1038 2656 1286 2365 
Q 1534 2075 1959 2075 
z
" transform="scale(0.015625)"/>
       </defs>
       <use xlink:href="#DejaVuSans-30"/>
       <use xlink:href="#DejaVuSans-2e" transform="translate(63.623047 0)"/>
       <use xlink:href="#DejaVuSans-39" transform="translate(95.410156 0)"/>
       <use xlink:href="#DejaVuSans-30" transform="translate(159.033203 0)"/>
      </g>
     </g>
    </g>
    <g id="ytick_2">
     <g id="line2d_11">
      <g>
       <use xlink:href="#mba72e075b3" x="72" y="424.024615" style="stroke: #000000; stroke-width: 0.8"/>
      </g>
     </g>
     <g id="text_12">
      <!-- 0.92 -->
      <g transform="translate(42.734375 427.823834) scale(0.1 -0.1)">
       <use xlink:href="#DejaVuSans-30"/>
       <use xlink:href="#DejaVuSans-2e" transform="translate(63.623047 0)"/>
       <use xlink:href="#DejaVuSans-39" transform="translate(95.410156 0)"/>
       <use xlink:href="#DejaVuSans-32" transform="translate(159.033203 0)"/>
      </g>
     </g>
    </g>
    <g id="ytick_3">
     <g id="line2d_12">
      <g>
       <use xlink:href="#mba72e075b3" x="72" y="335.409231" style="stroke: #000000; stroke-width: 0.8"/>
      </g>
     </g>
     <g id="text_13">
      <!-- 0.94 -->
      <g transform="translate(42.734375 339.20845) scale(0.1 -0.1)">
       <use xlink:href="#DejaVuSans-30"/>
       <use xlink:href="#DejaVuSans-2e" transform="translate(63.623047 0)"/>
       <use xlink:href="#DejaVuSans-39" transform="translate(95.410156 0)"/>
       <use xlink:href="#DejaVuSans-34" transform="translate(159.033203 0)"/>
      </g>
     </g>
    </g>
    <g id="ytick_4">
     <g id="line2d_13">
      <g>
       <use xlink:href="#mba72e075b3" x="72" y="246.793846" style="stroke: #000000; stroke-width: 0.8"/>
      </g>
     </g>
     <g id="text_14">
      <!-- 0.96 -->
      <g transform="translate(42.734375 250.593065) scale(0.1 -0.1)">
       <defs>
        <path id="DejaVuSans-36" d="M 2113 2584 
Q 1688 2584 1439 2293 
Q 1191 2003 1191 1497 
Q 1191 994 1439 701 
Q 1688 409 2113 409 
Q 2538 409 2786 701 
Q 3034 994 3034 1497 
Q 3034 2003 2786 2293 
Q 2538 2584 2113 2584 
z
M 3366 4563 
L 3366 3988 
Q 3128 4100 2886 4159 
Q 2644 4219 2406 4219 
Q 1781 4219 1451 3797 
Q 1122 3375 1075 2522 
Q 1259 2794 1537 2939 
Q 1816 3084 2150 3084 
Q 2853 3084 3261 2657 
Q 3669 2231 3669 1497 
Q 3669 778 3244 343 
Q 2819 -91 2113 -91 
Q 1303 -91 875 529 
Q 447 1150 447 2328 
Q 447 3434 972 4092 
Q 1497 4750 2381 4750 
Q 2619 4750 2861 4703 
Q 3103 4656 3366 4563 
z
" transform="scale(0.015625)"/>
       </defs>
       <use xlink:href="#DejaVuSans-30"/>
       <use xlink:href="#DejaVuSans-2e" transform="translate(63.623047 0)"/>
       <use xlink:href="#DejaVuSans-39" transform="translate(95.410156 0)"/>
       <use xlink:href="#DejaVuSans-36" transform="translate(159.033203 0)"/>
      </g>
     </g>
    </g>
    <g id="ytick_5">
     <g id="line2d_14">
      <g>
       <use xlink:href="#mba72e075b3" x="72" y="158.178462" style="stroke: #000000; stroke-width: 0.8"/>
      </g>
     </g>
     <g id="text_15">
      <!-- 0.98 -->
      <g transform="translate(42.734375 161.97768) scale(0.1 -0.1)">
       <defs>
        <path id="DejaVuSans-38" d="M 2034 2216 
Q 1584 2216 1326 1975 
Q 1069 1734 1069 1313 
Q 1069 891 1326 650 
Q 1584 409 2034 409 
Q 2484 409 2743 651 
Q 3003 894 3003 1313 
Q 3003 1734 2745 1975 
Q 2488 2216 2034 2216 
z
M 1403 2484 
Q 997 2584 770 2862 
Q 544 3141 544 3541 
Q 544 4100 942 4425 
Q 1341 4750 2034 4750 
Q 2731 4750 3128 4425 
Q 3525 4100 3525 3541 
Q 3525 3141 3298 2862 
Q 3072 2584 2669 2484 
Q 3125 2378 3379 2068 
Q 3634 1759 3634 1313 
Q 3634 634 3220 271 
Q 2806 -91 2034 -91 
Q 1263 -91 848 271 
Q 434 634 434 1313 
Q 434 1759 690 2068 
Q 947 2378 1403 2484 
z
M 1172 3481 
Q 1172 3119 1398 2916 
Q 1625 2713 2034 2713 
Q 2441 2713 2670 2916 
Q 2900 3119 2900 3481 
Q 2900 3844 2670 4047 
Q 2441 4250 2034 4250 
Q 1625 4250 1398 4047 
Q 1172 3844 1172 3481 
z
" transform="scale(0.015625)"/>
       </defs>
       <use xlink:href="#DejaVuSans-30"/>
       <use xlink:href="#DejaVuSans-2e" transform="translate(63.623047 0)"/>
       <use xlink:href="#DejaVuSans-39" transform="translate(95.410156 0)"/>
       <use xlink:href="#DejaVuSans-38" transform="translate(159.033203 0)"/>
      </g>
     </g>
    </g>
    <g id="ytick_6">
     <g id="line2d_15">
      <g>
       <use xlink:href="#mba72e075b3" x="72" y="69.563077" style="stroke: #000000; stroke-width: 0.8"/>
      </g>
     </g>
     <g id="text_16">
      <!-- 1.00 -->
      <g transform="translate(42.734375 73.362296) scale(0.1 -0.1)">
       <use xlink:href="#DejaVuSans-31"/>
       <use xlink:href="#DejaVuSans-2e" transform="translate(63.623047 0)"/>
       <use xlink:href="#DejaVuSans-30" transform="translate(95.410156 0)"/>
       <use xlink:href="#DejaVuSans-30" transform="translate(159.033203 0)"/>
      </g>
     </g>
    </g>
    <g id="text_17">
     <!-- $\lambda_{packets}$ -->
     <g transform="translate(34.084375 316.08) rotate(-90) scale(0.15 -0.15)">
      <defs>
       <path id="DejaVuSans-Oblique-3bb" d="M 2350 4316 
L 3125 0 
L 2516 0 
L 2038 2588 
L 328 0 
L -281 0 
L 1903 3356 
L 1794 3975 
Q 1725 4369 1391 4369 
L 1091 4369 
L 1184 4863 
L 1550 4856 
Q 2253 4847 2350 4316 
z
" transform="scale(0.015625)"/>
       <path id="DejaVuSans-Oblique-70" d="M 3175 2156 
Q 3175 2616 2975 2859 
Q 2775 3103 2400 3103 
Q 2144 3103 1911 2972 
Q 1678 2841 1497 2591 
Q 1319 2344 1212 1994 
Q 1106 1644 1106 1300 
Q 1106 863 1306 627 
Q 1506 391 1875 391 
Q 2147 391 2380 519 
Q 2613 647 2778 891 
Q 2956 1147 3065 1494 
Q 3175 1841 3175 2156 
z
M 1394 2969 
Q 1625 3272 1939 3428 
Q 2253 3584 2638 3584 
Q 3175 3584 3472 3232 
Q 3769 2881 3769 2247 
Q 3769 1728 3584 1258 
Q 3400 788 3053 416 
Q 2822 169 2531 39 
Q 2241 -91 1919 -91 
Q 1547 -91 1294 64 
Q 1041 219 916 525 
L 556 -1331 
L -19 -1331 
L 922 3500 
L 1497 3500 
L 1394 2969 
z
" transform="scale(0.015625)"/>
       <path id="DejaVuSans-Oblique-61" d="M 3438 1997 
L 3047 0 
L 2472 0 
L 2578 531 
Q 2325 219 2001 64 
Q 1678 -91 1281 -91 
Q 834 -91 548 182 
Q 263 456 263 884 
Q 263 1497 752 1853 
Q 1241 2209 2100 2209 
L 2900 2209 
L 2931 2363 
Q 2938 2388 2941 2417 
Q 2944 2447 2944 2509 
Q 2944 2788 2717 2942 
Q 2491 3097 2081 3097 
Q 1800 3097 1504 3025 
Q 1209 2953 897 2809 
L 997 3341 
Q 1322 3463 1633 3523 
Q 1944 3584 2234 3584 
Q 2853 3584 3176 3315 
Q 3500 3047 3500 2534 
Q 3500 2431 3484 2292 
Q 3469 2153 3438 1997 
z
M 2816 1759 
L 2241 1759 
Q 1534 1759 1195 1570 
Q 856 1381 856 984 
Q 856 709 1029 553 
Q 1203 397 1509 397 
Q 1978 397 2328 733 
Q 2678 1069 2791 1631 
L 2816 1759 
z
" transform="scale(0.015625)"/>
       <path id="DejaVuSans-Oblique-63" d="M 3431 3366 
L 3316 2797 
Q 3109 2947 2876 3022 
Q 2644 3097 2394 3097 
Q 2119 3097 1870 3000 
Q 1622 2903 1453 2725 
Q 1184 2453 1037 2087 
Q 891 1722 891 1331 
Q 891 859 1127 628 
Q 1363 397 1844 397 
Q 2081 397 2348 469 
Q 2616 541 2906 684 
L 2797 116 
Q 2547 13 2283 -39 
Q 2019 -91 1741 -91 
Q 1044 -91 669 257 
Q 294 606 294 1253 
Q 294 1797 489 2255 
Q 684 2713 1069 3078 
Q 1331 3328 1684 3456 
Q 2038 3584 2456 3584 
Q 2700 3584 2940 3529 
Q 3181 3475 3431 3366 
z
" transform="scale(0.015625)"/>
       <path id="DejaVuSans-Oblique-6b" d="M 1172 4863 
L 1747 4863 
L 1197 2028 
L 3169 3500 
L 3916 3500 
L 1716 1825 
L 3322 0 
L 2625 0 
L 1131 1709 
L 800 0 
L 225 0 
L 1172 4863 
z
" transform="scale(0.015625)"/>
       <path id="DejaVuSans-Oblique-65" d="M 3078 2063 
Q 3088 2113 3092 2166 
Q 3097 2219 3097 2272 
Q 3097 2653 2873 2875 
Q 2650 3097 2266 3097 
Q 1838 3097 1509 2826 
Q 1181 2556 1013 2059 
L 3078 2063 
z
M 3578 1613 
L 903 1613 
Q 884 1494 878 1425 
Q 872 1356 872 1306 
Q 872 872 1139 634 
Q 1406 397 1894 397 
Q 2269 397 2603 481 
Q 2938 566 3225 728 
L 3116 159 
Q 2806 34 2476 -28 
Q 2147 -91 1806 -91 
Q 1078 -91 686 257 
Q 294 606 294 1247 
Q 294 1794 489 2264 
Q 684 2734 1063 3103 
Q 1306 3334 1642 3459 
Q 1978 3584 2356 3584 
Q 2950 3584 3301 3228 
Q 3653 2872 3653 2272 
Q 3653 2128 3634 1964 
Q 3616 1800 3578 1613 
z
" transform="scale(0.015625)"/>
       <path id="DejaVuSans-Oblique-74" d="M 2706 3500 
L 2619 3053 
L 1472 3053 
L 1100 1153 
Q 1081 1047 1072 975 
Q 1063 903 1063 863 
Q 1063 663 1183 572 
Q 1303 481 1569 481 
L 2150 481 
L 2053 0 
L 1503 0 
Q 991 0 739 200 
Q 488 400 488 806 
Q 488 878 497 964 
Q 506 1050 525 1153 
L 897 3053 
L 409 3053 
L 500 3500 
L 978 3500 
L 1172 4494 
L 1747 4494 
L 1556 3500 
L 2706 3500 
z
" transform="scale(0.015625)"/>
       <path id="DejaVuSans-Oblique-73" d="M 3200 3397 
L 3091 2853 
Q 2863 2978 2609 3040 
Q 2356 3103 2088 3103 
Q 1634 3103 1373 2948 
Q 1113 2794 1113 2528 
Q 1113 2219 1719 2053 
Q 1766 2041 1788 2034 
L 1972 1978 
Q 2547 1819 2739 1644 
Q 2931 1469 2931 1166 
Q 2931 609 2489 259 
Q 2047 -91 1331 -91 
Q 1053 -91 747 -37 
Q 441 16 72 128 
L 184 722 
Q 500 559 806 475 
Q 1113 391 1394 391 
Q 1816 391 2080 572 
Q 2344 753 2344 1031 
Q 2344 1331 1650 1516 
L 1591 1531 
L 1394 1581 
Q 956 1697 753 1886 
Q 550 2075 550 2369 
Q 550 2928 970 3256 
Q 1391 3584 2113 3584 
Q 2397 3584 2667 3537 
Q 2938 3491 3200 3397 
z
" transform="scale(0.015625)"/>
      </defs>
      <use xlink:href="#DejaVuSans-Oblique-3bb" transform="translate(0 0.015625)"/>
      <use xlink:href="#DejaVuSans-Oblique-70" transform="translate(59.179688 -16.390625) scale(0.7)"/>
      <use xlink:href="#DejaVuSans-Oblique-61" transform="translate(103.613281 -16.390625) scale(0.7)"/>
      <use xlink:href="#DejaVuSans-Oblique-63" transform="translate(146.508789 -16.390625) scale(0.7)"/>
      <use xlink:href="#DejaVuSans-Oblique-6b" transform="translate(184.995117 -16.390625) scale(0.7)"/>
      <use xlink:href="#DejaVuSans-Oblique-65" transform="translate(225.532227 -16.390625) scale(0.7)"/>
      <use xlink:href="#DejaVuSans-Oblique-74" transform="translate(268.598633 -16.390625) scale(0.7)"/>
      <use xlink:href="#DejaVuSans-Oblique-73" transform="translate(296.044922 -16.390625) scale(0.7)"/>
     </g>
    </g>
   </g>
   <g id="line2d_16">
    <path d="M 113.719072 577 
L 113.829677 500.500458 
L 113.830933 500.500458 
L 113.94091 429.49559 
L 113.942166 429.49559 
L 114.052562 360.453989 
L 114.053399 360.453989 
L 114.164319 291.412389 
L 114.165679 291.412389 
L 114.275866 235.132033 
L 114.277226 235.132033 
L 114.387937 188.995229 
L 114.388878 188.995229 
L 114.499379 155.619669 
L 114.501367 155.619669 
L 114.610822 135.332563 
L 114.613124 135.332563 
L 114.722055 122.898531 
L 114.727601 122.898531 
L 114.830149 117.663149 
L 114.842915 117.663149 
L 114.929977 114.063824 
L 114.969112 114.063824 
L 115.051674 112.754978 
L 115.102425 112.754978 
L 115.211461 110.79171 
L 115.241074 110.79171 
L 115.336297 109.482865 
L 115.378049 109.482865 
L 115.415197 108.828442 
L 115.494724 108.828442 
L 115.535848 108.174019 
L 115.610875 108.174019 
L 115.610875 107.846808 
L 115.772755 107.846808 
L 115.849561 107.192385 
L 116.087724 107.192385 
L 116.127383 106.537962 
L 116.244371 106.537962 
L 116.324526 105.88354 
L 116.560492 105.88354 
L 116.560492 105.556328 
L 116.684073 105.556328 
L 116.684073 105.229117 
L 116.801375 105.229117 
L 116.844383 104.574694 
L 117.028446 104.574694 
L 117.076476 103.920271 
L 117.158933 103.920271 
L 117.158933 103.59306 
L 117.272155 103.59306 
L 117.318092 102.938637 
L 118.489129 102.938637 
L 118.577864 102.284214 
L 118.71756 102.284214 
L 118.80797 101.629792 
L 118.949863 101.629792 
L 119.042993 100.975369 
L 119.069886 100.975369 
L 119.069886 100.648158 
L 119.275924 100.648158 
L 119.275924 100.320946 
L 119.426502 100.320946 
L 119.519528 99.666523 
L 119.792327 99.666523 
L 119.883783 98.684889 
L 119.990308 98.684889 
L 120.022223 98.030467 
L 120.225436 98.030467 
L 120.225436 97.703255 
L 120.373189 97.703255 
L 120.373189 97.376044 
L 120.665974 97.376044 
L 120.727503 96.067198 
L 120.893882 96.067198 
L 120.893882 95.739987 
L 121.084015 95.739987 
L 121.084015 95.412776 
L 121.253847 95.412776 
L 121.30554 94.758353 
L 121.489499 94.758353 
L 121.558771 94.10393 
L 121.609836 94.10393 
L 121.662156 93.449507 
L 121.943012 93.449507 
L 121.943012 93.122296 
L 122.173536 93.122296 
L 122.256517 92.140662 
L 122.336358 92.140662 
L 122.41442 91.159028 
L 122.465275 91.159028 
L 122.575148 90.177394 
L 122.613028 90.177394 
L 122.693288 89.195759 
L 122.7409 89.195759 
L 122.7409 88.868548 
L 122.877979 88.868548 
L 122.937415 87.886914 
L 123.095528 87.886914 
L 123.171706 86.578068 
L 123.207075 86.578068 
L 123.292462 85.269223 
L 123.327726 85.269223 
L 123.413113 84.287589 
L 123.459364 84.287589 
L 123.512208 83.633166 
L 123.5977 83.633166 
L 123.695539 82.324321 
L 123.806144 82.324321 
L 123.89352 80.688264 
L 123.984662 80.688264 
L 124.078315 79.379418 
L 124.115463 79.379418 
L 124.220209 78.724995 
L 124.245532 78.724995 
L 124.356346 77.088939 
L 124.458999 77.088939 
L 124.458999 76.761727 
L 124.592207 76.761727 
L 124.634901 75.780093 
L 124.813104 75.780093 
L 124.837904 74.471248 
L 124.981995 74.471248 
L 125.075125 72.507979 
L 125.18301 72.507979 
L 125.253119 71.853557 
L 125.3113 71.853557 
L 125.352528 71.199134 
L 125.560764 71.199134 
L 125.656719 69.890288 
L 125.889859 69.890288 
L 125.889859 69.563077 
L 125.889859 69.563077 
" clip-path="url(#pc24864b7c6)" style="fill: none; stroke: #ffd700; stroke-width: 2; stroke-linecap: square"/>
   </g>
   <g id="line2d_17">
    <path d="M 468.422875 577 
L 468.527306 573.141383 
L 468.549072 573.141383 
L 468.636447 570.523692 
L 468.6602 570.523692 
L 468.765888 567.906001 
L 468.784514 567.906001 
L 468.894701 564.306676 
L 468.899723 564.306676 
L 469.002062 561.361774 
L 469.021839 561.361774 
L 469.098227 559.398506 
L 469.134328 559.398506 
L 469.244725 555.79918 
L 469.253724 555.79918 
L 469.3524 553.508701 
L 469.370503 553.508701 
L 469.475876 550.236587 
L 469.488852 550.236587 
L 469.593493 547.618896 
L 469.60584 547.618896 
L 469.71519 544.346782 
L 469.733607 544.346782 
L 469.842957 540.093034 
L 469.846305 540.093034 
L 469.94833 537.802555 
L 470.021056 537.802555 
L 470.129254 533.876018 
L 470.140765 533.876018 
L 470.247185 530.931116 
L 470.252312 530.931116 
L 470.362499 526.677368 
L 470.369615 526.677368 
L 470.454374 522.750831 
L 470.484092 522.750831 
L 470.586954 519.805929 
L 470.596267 519.805929 
L 470.69149 514.570547 
L 470.742555 514.570547 
L 470.849289 509.662376 
L 470.854312 509.662376 
L 470.952779 506.390263 
L 470.970777 506.390263 
L 471.080231 502.463726 
L 471.081906 502.463726 
L 471.186442 498.864401 
L 471.202452 498.864401 
L 471.308244 495.592287 
L 471.320905 495.592287 
L 471.403153 491.665751 
L 471.441347 491.665751 
L 471.539919 489.702483 
L 471.555406 489.702483 
L 471.639746 485.121523 
L 471.676894 485.121523 
L 471.749933 483.485466 
L 471.793569 483.485466 
L 471.904488 478.250084 
L 471.911813 478.250084 
L 472.001909 475.305182 
L 472.031941 475.305182 
L 472.140349 470.724223 
L 472.149871 470.724223 
L 472.260895 467.452109 
L 472.265081 467.452109 
L 472.351514 463.198361 
L 472.376837 463.198361 
L 472.486292 459.926247 
L 472.490059 459.926247 
L 472.59156 456.326922 
L 472.60757 456.326922 
L 472.691074 452.727597 
L 472.719641 452.727597 
L 472.823968 448.801061 
L 472.834537 448.801061 
L 472.942631 445.528947 
L 472.947967 445.528947 
L 473.05083 441.929622 
L 473.08714 441.929622 
L 473.194606 436.039817 
L 473.198687 436.039817 
L 473.297573 432.113281 
L 473.320803 432.113281 
L 473.429944 427.859533 
L 473.458197 427.859533 
L 473.568802 423.605785 
L 473.569849 423.605785 
L 473.67292 421.315305 
L 473.685477 421.315305 
L 473.793257 418.697614 
L 473.801838 418.697614 
L 473.898735 414.443866 
L 473.91914 414.443866 
L 474.028699 411.498964 
L 474.042616 411.498964 
L 474.15071 407.899639 
L 474.190893 407.899639 
L 474.298882 404.954736 
L 474.314892 404.954736 
L 474.423405 403.31868 
L 474.463064 403.31868 
L 474.559124 400.046566 
L 474.578483 400.046566 
L 474.670253 397.428875 
L 474.697983 397.428875 
L 474.79059 395.138395 
L 474.826482 395.138395 
L 474.916159 392.193493 
L 474.93761 392.193493 
L 475.027915 388.921379 
L 475.056482 388.921379 
L 475.147729 386.630899 
L 475.169913 386.630899 
L 475.267543 382.377152 
L 475.284704 382.377152 
L 475.372289 378.123404 
L 475.427016 378.123404 
L 475.524751 373.869656 
L 475.543691 373.869656 
L 475.64739 370.597542 
L 475.656284 370.597542 
L 475.76689 366.671006 
L 475.785411 366.671006 
L 475.888483 363.07168 
L 475.907318 363.07168 
L 476.015412 359.799567 
L 476.021377 359.799567 
L 476.131773 354.891396 
L 476.146004 354.891396 
L 476.241646 351.292071 
L 476.259435 351.292071 
L 476.367215 347.365534 
L 476.375481 347.365534 
L 476.48368 342.784575 
L 476.48797 342.784575 
L 476.59753 340.166884 
L 476.6149 340.166884 
L 476.7051 336.567559 
L 476.738062 336.567559 
L 476.840924 332.313811 
L 476.850028 332.313811 
L 476.945984 328.060063 
L 476.964505 328.060063 
L 477.033464 325.769584 
L 477.091539 325.769584 
L 477.197227 319.225356 
L 477.207168 319.225356 
L 477.305844 315.953242 
L 477.318715 315.953242 
L 477.420426 311.699495 
L 477.457573 311.699495 
L 477.556459 308.427381 
L 477.571214 308.427381 
L 477.681296 302.537576 
L 477.688097 302.537576 
L 477.776728 300.901519 
L 477.800796 300.901519 
L 477.911715 294.357292 
L 477.912029 294.357292 
L 478.019809 289.776332 
L 478.029959 289.776332 
L 478.132403 284.868162 
L 478.156156 284.868162 
L 478.26582 282.250471 
L 478.268227 282.250471 
L 478.364287 277.669512 
L 478.382285 277.669512 
L 478.486089 272.43413 
L 478.496972 272.43413 
L 478.603496 267.525959 
L 478.620239 267.525959 
L 478.720276 262.290577 
L 478.734088 262.290577 
L 478.824498 257.709618 
L 478.861018 257.709618 
L 478.971832 253.783081 
L 478.994644 253.783081 
L 479.078148 251.819813 
L 479.107343 251.819813 
L 479.209891 246.584431 
L 479.222448 246.584431 
L 479.331902 242.003472 
L 479.351888 242.003472 
L 479.461971 237.095301 
L 479.46375 237.095301 
L 479.569646 232.18713 
L 479.608782 232.18713 
L 479.70411 229.896651 
L 479.724619 229.896651 
L 479.831249 225.970114 
L 479.840457 225.970114 
L 479.94897 221.389155 
L 479.952841 221.389155 
L 480.063865 217.78983 
L 480.087933 217.78983 
L 480.170285 214.190505 
L 480.200422 214.190505 
L 480.309772 210.59118 
L 480.316887 210.59118 
L 480.409913 206.664643 
L 480.459303 206.664643 
L 480.56813 202.083684 
L 480.577234 202.083684 
L 480.68627 199.465993 
L 480.697362 199.465993 
L 480.797922 196.193879 
L 480.813722 196.193879 
L 480.920351 194.557822 
L 480.942954 194.557822 
L 481.051257 190.631286 
L 481.055861 190.631286 
L 481.165944 188.668017 
L 481.170025 188.668017 
L 481.242227 186.050326 
L 481.284083 186.050326 
L 481.380772 184.41427 
L 481.395631 184.41427 
L 481.498179 181.796579 
L 481.507701 181.796579 
L 481.600518 179.178888 
L 481.641223 179.178888 
L 481.7354 177.542831 
L 481.760932 177.542831 
L 481.871433 175.579562 
L 481.875933 175.579562 
L 481.930555 174.270717 
L 481.997525 174.270717 
L 482.063449 172.63466 
L 482.137849 172.63466 
L 482.238932 170.016969 
L 482.248977 170.016969 
L 482.257977 169.362546 
L 482.395893 169.362546 
L 482.49436 168.053701 
L 482.534019 168.053701 
L 482.636254 166.744855 
L 482.654356 166.744855 
L 482.763288 165.108798 
L 482.776577 165.108798 
L 482.877556 163.14553 
L 482.938143 163.14553 
L 483.014007 162.491107 
L 483.071246 162.491107 
L 483.127334 160.855051 
L 483.227998 160.855051 
L 483.244217 159.873416 
L 483.350533 159.873416 
L 483.366752 159.218994 
L 483.464382 159.218994 
L 483.529469 158.23736 
L 483.575825 158.23736 
L 483.630238 157.255725 
L 483.705161 157.255725 
L 483.814511 156.601303 
L 483.821626 156.601303 
L 483.823614 155.94688 
L 483.940184 155.94688 
L 483.940184 155.619669 
L 484.109807 155.619669 
L 484.204821 154.310823 
L 484.222296 154.310823 
L 484.303288 153.001978 
L 484.360422 153.001978 
L 484.471028 152.020343 
L 484.511315 152.020343 
L 484.53308 151.365921 
L 484.647348 151.365921 
L 484.695587 150.711498 
L 484.804519 150.711498 
L 484.883627 149.729864 
L 484.948504 149.729864 
L 485.054924 149.075441 
L 485.064028 149.075441 
L 485.167832 147.439384 
L 485.275403 147.439384 
L 485.348965 146.130539 
L 485.405053 146.130539 
L 485.405053 145.803327 
L 485.519739 145.803327 
L 485.591 144.494482 
L 485.644367 144.494482 
L 485.644367 144.16727 
L 485.807502 144.16727 
L 485.897912 143.185636 
L 485.987589 143.185636 
L 486.047758 141.876791 
L 486.104473 141.876791 
L 486.178349 140.895157 
L 486.286025 140.895157 
L 486.378632 139.913523 
L 486.470925 139.913523 
L 486.562277 139.2591 
L 486.602668 139.2591 
L 486.699671 137.623043 
L 486.741736 137.623043 
L 486.741736 137.295832 
L 486.872224 137.295832 
L 486.981992 135.659775 
L 486.998839 135.659775 
L 487.107561 134.350929 
L 487.171706 134.350929 
L 487.239618 133.042084 
L 487.299159 133.042084 
L 487.408404 131.733238 
L 487.449632 131.733238 
L 487.449632 131.406027 
L 487.575201 131.406027 
L 487.659751 130.424393 
L 487.704642 130.424393 
L 487.744196 129.76997 
L 487.823724 129.76997 
L 487.891217 128.788336 
L 487.940712 128.788336 
L 487.993137 128.133913 
L 488.087 128.133913 
L 488.134403 127.152279 
L 488.224184 127.152279 
L 488.333325 124.861799 
L 488.367019 124.861799 
L 488.466219 123.880165 
L 488.506924 123.880165 
L 488.570127 122.898531 
L 488.632179 122.898531 
L 488.679059 121.589686 
L 488.80536 121.589686 
L 488.86239 120.28084 
L 488.944742 120.28084 
L 489.055452 119.626417 
L 489.061521 119.626417 
L 489.163755 117.663149 
L 489.22225 117.663149 
L 489.312136 115.372669 
L 489.354097 115.372669 
L 489.417614 114.391035 
L 489.518698 114.391035 
L 489.587237 112.754978 
L 489.654103 112.754978 
L 489.762092 111.118922 
L 489.810646 111.118922 
L 489.8953 109.810076 
L 489.935587 109.810076 
L 490.005696 108.828442 
L 490.046716 108.828442 
L 490.118813 107.192385 
L 490.167053 107.192385 
L 490.241662 105.88354 
L 490.279751 105.88354 
L 490.388368 104.574694 
L 490.416308 104.574694 
L 490.524716 103.59306 
L 490.573164 103.59306 
L 490.649657 102.284214 
L 490.717987 102.284214 
L 490.80892 100.320946 
L 490.877042 100.320946 
L 490.951964 99.666523 
L 490.99989 99.666523 
L 491.098776 98.357678 
L 491.115832 98.357678 
L 491.219113 97.048832 
L 491.235332 97.048832 
L 491.288071 96.39441 
L 491.354518 96.39441 
L 491.45309 95.412776 
L 491.523409 95.412776 
L 491.588181 94.10393 
L 491.659233 94.10393 
L 491.659233 93.776719 
L 491.814415 93.776719 
L 491.892791 92.467873 
L 491.945844 92.467873 
L 492.053834 91.81345 
L 492.063565 91.81345 
L 492.118188 91.159028 
L 492.28959 91.159028 
L 492.39287 90.177394 
L 492.407101 90.177394 
L 492.416205 89.522971 
L 492.532147 89.522971 
L 492.627894 88.868548 
L 492.645997 88.868548 
L 492.72092 87.886914 
L 492.840106 87.886914 
L 492.885624 86.90528 
L 492.979697 86.90528 
L 493.002927 86.250857 
L 493.120125 86.250857 
L 493.21765 84.6148 
L 493.234811 84.6148 
L 493.334743 83.633166 
L 493.354939 83.633166 
L 493.354939 83.305955 
L 493.590695 83.305955 
L 493.590695 82.978743 
L 493.713857 82.978743 
L 493.805314 82.324321 
L 493.83116 82.324321 
L 493.83116 81.997109 
L 493.952334 81.997109 
L 493.952334 81.669898 
L 494.064823 81.669898 
L 494.166639 80.688264 
L 494.304556 80.688264 
L 494.395279 79.70663 
L 494.428137 79.70663 
L 494.524825 79.052207 
L 494.540207 79.052207 
L 494.560612 78.397784 
L 494.751372 78.397784 
L 494.802333 77.41615 
L 494.984931 77.41615 
L 494.984931 77.088939 
L 495.110814 77.088939 
L 495.149636 76.434516 
L 495.342803 76.434516 
L 495.384555 75.780093 
L 495.501753 75.780093 
L 495.501753 75.452882 
L 495.831162 75.452882 
L 495.859625 74.798459 
L 495.94543 74.798459 
L 495.94543 74.471248 
L 496.09988 74.471248 
L 496.180663 73.816825 
L 496.331241 73.816825 
L 496.418198 73.162402 
L 496.568148 73.162402 
L 496.654896 72.507979 
L 496.934287 72.507979 
L 497.001571 71.853557 
L 497.047927 71.853557 
L 497.122013 71.199134 
L 497.279393 71.199134 
L 497.35599 70.544711 
L 497.515567 70.544711 
L 497.515567 70.2175 
L 497.879718 70.2175 
L 497.879718 69.890288 
L 498.109091 69.890288 
L 498.109091 69.563077 
L 498.109091 69.563077 
" clip-path="url(#pc24864b7c6)" style="fill: none; stroke: #800080; stroke-width: 2; stroke-linecap: square"/>
   </g>
   <g id="patch_3">
    <path d="M 72 512.64 
L 72 69.12 
" style="fill: none; stroke: #000000; stroke-width: 0.8; stroke-linejoin: miter; stroke-linecap: square"/>
   </g>
   <g id="patch_4">
    <path d="M 518.4 512.64 
L 518.4 69.12 
" style="fill: none; stroke: #000000; stroke-width: 0.8; stroke-linejoin: miter; stroke-linecap: square"/>
   </g>
   <g id="patch_5">
    <path d="M 72 512.64 
L 518.4 512.64 
" style="fill: none; stroke: #000000; stroke-width: 0.8; stroke-linejoin: miter; stroke-linecap: square"/>
   </g>
   <g id="patch_6">
    <path d="M 72 69.12 
L 518.4 69.12 
" style="fill: none; stroke: #000000; stroke-width: 0.8; stroke-linejoin: miter; stroke-linecap: square"/>
   </g>
   <g id="text_18">
    <!-- Constrained Video Latency Cumulative Distribution -->
    <g transform="translate(141.544687 63.12) scale(0.12 -0.12)">
     <defs>
      <path id="DejaVuSans-43" d="M 4122 4306 
L 4122 3641 
Q 3803 3938 3442 4084 
Q 3081 4231 2675 4231 
Q 1875 4231 1450 3742 
Q 1025 3253 1025 2328 
Q 1025 1406 1450 917 
Q 1875 428 2675 428 
Q 3081 428 3442 575 
Q 3803 722 4122 1019 
L 4122 359 
Q 3791 134 3420 21 
Q 3050 -91 2638 -91 
Q 1578 -91 968 557 
Q 359 1206 359 2328 
Q 359 3453 968 4101 
Q 1578 4750 2638 4750 
Q 3056 4750 3426 4639 
Q 3797 4528 4122 4306 
z
" transform="scale(0.015625)"/>
      <path id="DejaVuSans-6f" d="M 1959 3097 
Q 1497 3097 1228 2736 
Q 959 2375 959 1747 
Q 959 1119 1226 758 
Q 1494 397 1959 397 
Q 2419 397 2687 759 
Q 2956 1122 2956 1747 
Q 2956 2369 2687 2733 
Q 2419 3097 1959 3097 
z
M 1959 3584 
Q 2709 3584 3137 3096 
Q 3566 2609 3566 1747 
Q 3566 888 3137 398 
Q 2709 -91 1959 -91 
Q 1206 -91 779 398 
Q 353 888 353 1747 
Q 353 2609 779 3096 
Q 1206 3584 1959 3584 
z
" transform="scale(0.015625)"/>
      <path id="DejaVuSans-6e" d="M 3513 2113 
L 3513 0 
L 2938 0 
L 2938 2094 
Q 2938 2591 2744 2837 
Q 2550 3084 2163 3084 
Q 1697 3084 1428 2787 
Q 1159 2491 1159 1978 
L 1159 0 
L 581 0 
L 581 3500 
L 1159 3500 
L 1159 2956 
Q 1366 3272 1645 3428 
Q 1925 3584 2291 3584 
Q 2894 3584 3203 3211 
Q 3513 2838 3513 2113 
z
" transform="scale(0.015625)"/>
      <path id="DejaVuSans-74" d="M 1172 4494 
L 1172 3500 
L 2356 3500 
L 2356 3053 
L 1172 3053 
L 1172 1153 
Q 1172 725 1289 603 
Q 1406 481 1766 481 
L 2356 481 
L 2356 0 
L 1766 0 
Q 1100 0 847 248 
Q 594 497 594 1153 
L 594 3053 
L 172 3053 
L 172 3500 
L 594 3500 
L 594 4494 
L 1172 4494 
z
" transform="scale(0.015625)"/>
      <path id="DejaVuSans-72" d="M 2631 2963 
Q 2534 3019 2420 3045 
Q 2306 3072 2169 3072 
Q 1681 3072 1420 2755 
Q 1159 2438 1159 1844 
L 1159 0 
L 581 0 
L 581 3500 
L 1159 3500 
L 1159 2956 
Q 1341 3275 1631 3429 
Q 1922 3584 2338 3584 
Q 2397 3584 2469 3576 
Q 2541 3569 2628 3553 
L 2631 2963 
z
" transform="scale(0.015625)"/>
      <path id="DejaVuSans-61" d="M 2194 1759 
Q 1497 1759 1228 1600 
Q 959 1441 959 1056 
Q 959 750 1161 570 
Q 1363 391 1709 391 
Q 2188 391 2477 730 
Q 2766 1069 2766 1631 
L 2766 1759 
L 2194 1759 
z
M 3341 1997 
L 3341 0 
L 2766 0 
L 2766 531 
Q 2569 213 2275 61 
Q 1981 -91 1556 -91 
Q 1019 -91 701 211 
Q 384 513 384 1019 
Q 384 1609 779 1909 
Q 1175 2209 1959 2209 
L 2766 2209 
L 2766 2266 
Q 2766 2663 2505 2880 
Q 2244 3097 1772 3097 
Q 1472 3097 1187 3025 
Q 903 2953 641 2809 
L 641 3341 
Q 956 3463 1253 3523 
Q 1550 3584 1831 3584 
Q 2591 3584 2966 3190 
Q 3341 2797 3341 1997 
z
" transform="scale(0.015625)"/>
      <path id="DejaVuSans-64" d="M 2906 2969 
L 2906 4863 
L 3481 4863 
L 3481 0 
L 2906 0 
L 2906 525 
Q 2725 213 2448 61 
Q 2172 -91 1784 -91 
Q 1150 -91 751 415 
Q 353 922 353 1747 
Q 353 2572 751 3078 
Q 1150 3584 1784 3584 
Q 2172 3584 2448 3432 
Q 2725 3281 2906 2969 
z
M 947 1747 
Q 947 1113 1208 752 
Q 1469 391 1925 391 
Q 2381 391 2643 752 
Q 2906 1113 2906 1747 
Q 2906 2381 2643 2742 
Q 2381 3103 1925 3103 
Q 1469 3103 1208 2742 
Q 947 2381 947 1747 
z
" transform="scale(0.015625)"/>
      <path id="DejaVuSans-56" d="M 1831 0 
L 50 4666 
L 709 4666 
L 2188 738 
L 3669 4666 
L 4325 4666 
L 2547 0 
L 1831 0 
z
" transform="scale(0.015625)"/>
      <path id="DejaVuSans-4c" d="M 628 4666 
L 1259 4666 
L 1259 531 
L 3531 531 
L 3531 0 
L 628 0 
L 628 4666 
z
" transform="scale(0.015625)"/>
      <path id="DejaVuSans-63" d="M 3122 3366 
L 3122 2828 
Q 2878 2963 2633 3030 
Q 2388 3097 2138 3097 
Q 1578 3097 1268 2742 
Q 959 2388 959 1747 
Q 959 1106 1268 751 
Q 1578 397 2138 397 
Q 2388 397 2633 464 
Q 2878 531 3122 666 
L 3122 134 
Q 2881 22 2623 -34 
Q 2366 -91 2075 -91 
Q 1284 -91 818 406 
Q 353 903 353 1747 
Q 353 2603 823 3093 
Q 1294 3584 2113 3584 
Q 2378 3584 2631 3529 
Q 2884 3475 3122 3366 
z
" transform="scale(0.015625)"/>
      <path id="DejaVuSans-79" d="M 2059 -325 
Q 1816 -950 1584 -1140 
Q 1353 -1331 966 -1331 
L 506 -1331 
L 506 -850 
L 844 -850 
Q 1081 -850 1212 -737 
Q 1344 -625 1503 -206 
L 1606 56 
L 191 3500 
L 800 3500 
L 1894 763 
L 2988 3500 
L 3597 3500 
L 2059 -325 
z
" transform="scale(0.015625)"/>
      <path id="DejaVuSans-75" d="M 544 1381 
L 544 3500 
L 1119 3500 
L 1119 1403 
Q 1119 906 1312 657 
Q 1506 409 1894 409 
Q 2359 409 2629 706 
Q 2900 1003 2900 1516 
L 2900 3500 
L 3475 3500 
L 3475 0 
L 2900 0 
L 2900 538 
Q 2691 219 2414 64 
Q 2138 -91 1772 -91 
Q 1169 -91 856 284 
Q 544 659 544 1381 
z
M 1991 3584 
L 1991 3584 
z
" transform="scale(0.015625)"/>
      <path id="DejaVuSans-6c" d="M 603 4863 
L 1178 4863 
L 1178 0 
L 603 0 
L 603 4863 
z
" transform="scale(0.015625)"/>
      <path id="DejaVuSans-76" d="M 191 3500 
L 800 3500 
L 1894 563 
L 2988 3500 
L 3597 3500 
L 2284 0 
L 1503 0 
L 191 3500 
z
" transform="scale(0.015625)"/>
      <path id="DejaVuSans-44" d="M 1259 4147 
L 1259 519 
L 2022 519 
Q 2988 519 3436 956 
Q 3884 1394 3884 2338 
Q 3884 3275 3436 3711 
Q 2988 4147 2022 4147 
L 1259 4147 
z
M 628 4666 
L 1925 4666 
Q 3281 4666 3915 4102 
Q 4550 3538 4550 2338 
Q 4550 1131 3912 565 
Q 3275 0 1925 0 
L 628 0 
L 628 4666 
z
" transform="scale(0.015625)"/>
      <path id="DejaVuSans-62" d="M 3116 1747 
Q 3116 2381 2855 2742 
Q 2594 3103 2138 3103 
Q 1681 3103 1420 2742 
Q 1159 2381 1159 1747 
Q 1159 1113 1420 752 
Q 1681 391 2138 391 
Q 2594 391 2855 752 
Q 3116 1113 3116 1747 
z
M 1159 2969 
Q 1341 3281 1617 3432 
Q 1894 3584 2278 3584 
Q 2916 3584 3314 3078 
Q 3713 2572 3713 1747 
Q 3713 922 3314 415 
Q 2916 -91 2278 -91 
Q 1894 -91 1617 61 
Q 1341 213 1159 525 
L 1159 0 
L 581 0 
L 581 4863 
L 1159 4863 
L 1159 2969 
z
" transform="scale(0.015625)"/>
     </defs>
     <use xlink:href="#DejaVuSans-43"/>
     <use xlink:href="#DejaVuSans-6f" transform="translate(69.824219 0)"/>
     <use xlink:href="#DejaVuSans-6e" transform="translate(131.005859 0)"/>
     <use xlink:href="#DejaVuSans-73" transform="translate(194.384766 0)"/>
     <use xlink:href="#DejaVuSans-74" transform="translate(246.484375 0)"/>
     <use xlink:href="#DejaVuSans-72" transform="translate(285.693359 0)"/>
     <use xlink:href="#DejaVuSans-61" transform="translate(326.806641 0)"/>
     <use xlink:href="#DejaVuSans-69" transform="translate(388.085938 0)"/>
     <use xlink:href="#DejaVuSans-6e" transform="translate(415.869141 0)"/>
     <use xlink:href="#DejaVuSans-65" transform="translate(479.248047 0)"/>
     <use xlink:href="#DejaVuSans-64" transform="translate(540.771484 0)"/>
     <use xlink:href="#DejaVuSans-20" transform="translate(604.248047 0)"/>
     <use xlink:href="#DejaVuSans-56" transform="translate(636.035156 0)"/>
     <use xlink:href="#DejaVuSans-69" transform="translate(702.193359 0)"/>
     <use xlink:href="#DejaVuSans-64" transform="translate(729.976562 0)"/>
     <use xlink:href="#DejaVuSans-65" transform="translate(793.453125 0)"/>
     <use xlink:href="#DejaVuSans-6f" transform="translate(854.976562 0)"/>
     <use xlink:href="#DejaVuSans-20" transform="translate(916.158203 0)"/>
     <use xlink:href="#DejaVuSans-4c" transform="translate(947.945312 0)"/>
     <use xlink:href="#DejaVuSans-61" transform="translate(1003.658203 0)"/>
     <use xlink:href="#DejaVuSans-74" transform="translate(1064.9375 0)"/>
     <use xlink:href="#DejaVuSans-65" transform="translate(1104.146484 0)"/>
     <use xlink:href="#DejaVuSans-6e" transform="translate(1165.669922 0)"/>
     <use xlink:href="#DejaVuSans-63" transform="translate(1229.048828 0)"/>
     <use xlink:href="#DejaVuSans-79" transform="translate(1284.029297 0)"/>
     <use xlink:href="#DejaVuSans-20" transform="translate(1343.208984 0)"/>
     <use xlink:href="#DejaVuSans-43" transform="translate(1374.996094 0)"/>
     <use xlink:href="#DejaVuSans-75" transform="translate(1444.820312 0)"/>
     <use xlink:href="#DejaVuSans-6d" transform="translate(1508.199219 0)"/>
     <use xlink:href="#DejaVuSans-75" transform="translate(1605.611328 0)"/>
     <use xlink:href="#DejaVuSans-6c" transform="translate(1668.990234 0)"/>
     <use xlink:href="#DejaVuSans-61" transform="translate(1696.773438 0)"/>
     <use xlink:href="#DejaVuSans-74" transform="translate(1758.052734 0)"/>
     <use xlink:href="#DejaVuSans-69" transform="translate(1797.261719 0)"/>
     <use xlink:href="#DejaVuSans-76" transform="translate(1825.044922 0)"/>
     <use xlink:href="#DejaVuSans-65" transform="translate(1884.224609 0)"/>
     <use xlink:href="#DejaVuSans-20" transform="translate(1945.748047 0)"/>
     <use xlink:href="#DejaVuSans-44" transform="translate(1977.535156 0)"/>
     <use xlink:href="#DejaVuSans-69" transform="translate(2054.537109 0)"/>
     <use xlink:href="#DejaVuSans-73" transform="translate(2082.320312 0)"/>
     <use xlink:href="#DejaVuSans-74" transform="translate(2134.419922 0)"/>
     <use xlink:href="#DejaVuSans-72" transform="translate(2173.628906 0)"/>
     <use xlink:href="#DejaVuSans-69" transform="translate(2214.742188 0)"/>
     <use xlink:href="#DejaVuSans-62" transform="translate(2242.525391 0)"/>
     <use xlink:href="#DejaVuSans-75" transform="translate(2306.001953 0)"/>
     <use xlink:href="#DejaVuSans-74" transform="translate(2369.380859 0)"/>
     <use xlink:href="#DejaVuSans-69" transform="translate(2408.589844 0)"/>
     <use xlink:href="#DejaVuSans-6f" transform="translate(2436.373047 0)"/>
     <use xlink:href="#DejaVuSans-6e" transform="translate(2497.554688 0)"/>
    </g>
   </g>
   <g id="legend_1">
    <g id="patch_7">
     <path d="M 454.276562 507.64 
L 511.4 507.64 
Q 513.4 507.64 513.4 505.64 
L 513.4 462.605625 
Q 513.4 460.605625 511.4 460.605625 
L 454.276562 460.605625 
Q 452.276562 460.605625 452.276562 462.605625 
L 452.276562 505.64 
Q 452.276562 507.64 454.276562 507.64 
z
" style="fill: #ffffff; opacity: 0.8; stroke: #cccccc; stroke-linejoin: miter"/>
    </g>
    <g id="text_19">
     <!-- Protocols -->
     <g transform="translate(460.086719 472.204063) scale(0.1 -0.1)">
      <defs>
       <path id="DejaVuSans-50" d="M 1259 4147 
L 1259 2394 
L 2053 2394 
Q 2494 2394 2734 2622 
Q 2975 2850 2975 3272 
Q 2975 3691 2734 3919 
Q 2494 4147 2053 4147 
L 1259 4147 
z
M 628 4666 
L 2053 4666 
Q 2838 4666 3239 4311 
Q 3641 3956 3641 3272 
Q 3641 2581 3239 2228 
Q 2838 1875 2053 1875 
L 1259 1875 
L 1259 0 
L 628 0 
L 628 4666 
z
" transform="scale(0.015625)"/>
      </defs>
      <use xlink:href="#DejaVuSans-50"/>
      <use xlink:href="#DejaVuSans-72" transform="translate(58.552734 0)"/>
      <use xlink:href="#DejaVuSans-6f" transform="translate(97.416016 0)"/>
      <use xlink:href="#DejaVuSans-74" transform="translate(158.597656 0)"/>
      <use xlink:href="#DejaVuSans-6f" transform="translate(197.806641 0)"/>
      <use xlink:href="#DejaVuSans-63" transform="translate(258.988281 0)"/>
      <use xlink:href="#DejaVuSans-6f" transform="translate(313.96875 0)"/>
      <use xlink:href="#DejaVuSans-6c" transform="translate(375.150391 0)"/>
      <use xlink:href="#DejaVuSans-73" transform="translate(402.933594 0)"/>
     </g>
    </g>
    <g id="line2d_18">
     <path d="M 456.276562 483.382187 
L 466.276562 483.382187 
L 466.276562 483.382187 
L 476.276562 483.382187 
L 476.276562 483.382187 
" style="fill: none; stroke: #ffd700; stroke-width: 2; stroke-linecap: square"/>
    </g>
    <g id="text_20">
     <!-- UDP -->
     <g transform="translate(484.276562 486.882187) scale(0.1 -0.1)">
      <defs>
       <path id="DejaVuSans-55" d="M 556 4666 
L 1191 4666 
L 1191 1831 
Q 1191 1081 1462 751 
Q 1734 422 2344 422 
Q 2950 422 3222 751 
Q 3494 1081 3494 1831 
L 3494 4666 
L 4128 4666 
L 4128 1753 
Q 4128 841 3676 375 
Q 3225 -91 2344 -91 
Q 1459 -91 1007 375 
Q 556 841 556 1753 
L 556 4666 
z
" transform="scale(0.015625)"/>
      </defs>
      <use xlink:href="#DejaVuSans-55"/>
      <use xlink:href="#DejaVuSans-44" transform="translate(73.193359 0)"/>
      <use xlink:href="#DejaVuSans-50" transform="translate(150.195312 0)"/>
     </g>
    </g>
    <g id="line2d_19">
     <path d="M 456.276562 498.060313 
L 466.276562 498.060313 
L 466.276562 498.060313 
L 476.276562 498.060313 
L 476.276562 498.060313 
" style="fill: none; stroke: #800080; stroke-width: 2; stroke-linecap: square"/>
    </g>
    <g id="text_21">
     <!-- QUIC -->
     <g transform="translate(484.276562 501.560313) scale(0.1 -0.1)">
      <defs>
       <path id="DejaVuSans-51" d="M 2522 4238 
Q 1834 4238 1429 3725 
Q 1025 3213 1025 2328 
Q 1025 1447 1429 934 
Q 1834 422 2522 422 
Q 3209 422 3611 934 
Q 4013 1447 4013 2328 
Q 4013 3213 3611 3725 
Q 3209 4238 2522 4238 
z
M 3406 84 
L 4238 -825 
L 3475 -825 
L 2784 -78 
Q 2681 -84 2626 -87 
Q 2572 -91 2522 -91 
Q 1538 -91 948 567 
Q 359 1225 359 2328 
Q 359 3434 948 4092 
Q 1538 4750 2522 4750 
Q 3503 4750 4090 4092 
Q 4678 3434 4678 2328 
Q 4678 1516 4351 937 
Q 4025 359 3406 84 
z
" transform="scale(0.015625)"/>
       <path id="DejaVuSans-49" d="M 628 4666 
L 1259 4666 
L 1259 0 
L 628 0 
L 628 4666 
z
" transform="scale(0.015625)"/>
      </defs>
      <use xlink:href="#DejaVuSans-51"/>
      <use xlink:href="#DejaVuSans-55" transform="translate(78.710938 0)"/>
      <use xlink:href="#DejaVuSans-49" transform="translate(151.904297 0)"/>
      <use xlink:href="#DejaVuSans-43" transform="translate(181.396484 0)"/>
     </g>
    </g>
   </g>
  </g>
 </g>
 <defs>
  <clipPath id="pc24864b7c6">
   <rect x="72" y="69.12" width="446.4" height="443.52"/>
  </clipPath>
 </defs>
</svg>
