<?xml version="1.0" encoding="utf-8" standalone="no"?>
<!DOCTYPE svg PUBLIC "-//W3C//DTD SVG 1.1//EN"
  "http://www.w3.org/Graphics/SVG/1.1/DTD/svg11.dtd">
<svg xmlns:xlink="http://www.w3.org/1999/xlink" width="576pt" height="576pt" viewBox="0 0 576 576" xmlns="http://www.w3.org/2000/svg" version="1.1">
 <metadata>
  <rdf:RDF xmlns:dc="http://purl.org/dc/elements/1.1/" xmlns:cc="http://creativecommons.org/ns#" xmlns:rdf="http://www.w3.org/1999/02/22-rdf-syntax-ns#">
   <cc:Work>
    <dc:type rdf:resource="http://purl.org/dc/dcmitype/StillImage"/>
    <dc:date>2026-05-17T16:01:09.847057</dc:date>
    <dc:format>image/svg+xml</dc:format>
    <dc:creator>
     <cc:Agent>
      <dc:title>Matplotlib v3.10.9, https://matplotlib.org/</dc:title>
     </cc:Agent>
    </dc:creator>
   </cc:Work>
  </rdf:RDF>
 </metadata>
 <defs>
  <style type="text/css">*{stroke-linejoin: round; stroke-linecap: butt}</style>
 </defs>
 <g id="figure_1">
  <g id="patch_1">
   <path d="M 0 576 
L 576 576 
L 576 0 
L 0 0 
z
" style="fill: #ffffff"/>
  </g>
  <g id="axes_1">
   <g id="patch_2">
    <path d="M 72 512.64 
L 518.4 512.64 
L 518.4 69.12 
L 72 69.12 
z
" style="fill: #ffffff"/>
   </g>
   <g id="matplotlib.axis_1">
    <g id="xtick_1">
     <g id="line2d_1">
      <defs>
       <path id="m2d9bd96c1f" d="M 0 0 
L 0 3.5 
" style="stroke: #000000; stroke-width: 0.8"/>
      </defs>
      <g>
       <use xlink:href="#m2d9bd96c1f" x="82.956738" y="512.64" style="stroke: #000000; stroke-width: 0.8"/>
      </g>
     </g>
     <g id="text_1">
      <!-- 0 -->
      <g transform="translate(79.775488 527.238438) scale(0.1 -0.1)">
       <defs>
        <path id="DejaVuSans-30" d="M 2034 4250 
Q 1547 4250 1301 3770 
Q 1056 3291 1056 2328 
Q 1056 1369 1301 889 
Q 1547 409 2034 409 
Q 2525 409 2770 889 
Q 3016 1369 3016 2328 
Q 3016 3291 2770 3770 
Q 2525 4250 2034 4250 
z
M 2034 4750 
Q 2819 4750 3233 4129 
Q 3647 3509 3647 2328 
Q 3647 1150 3233 529 
Q 2819 -91 2034 -91 
Q 1250 -91 836 529 
Q 422 1150 422 2328 
Q 422 3509 836 4129 
Q 1250 4750 2034 4750 
z
" transform="scale(0.015625)"/>
       </defs>
       <use xlink:href="#DejaVuSans-30"/>
      </g>
     </g>
    </g>
    <g id="xtick_2">
     <g id="line2d_2">
      <g>
       <use xlink:href="#m2d9bd96c1f" x="138.071115" y="512.64" style="stroke: #000000; stroke-width: 0.8"/>
      </g>
     </g>
     <g id="text_2">
      <!-- 25 -->
      <g transform="translate(131.708615 527.238438) scale(0.1 -0.1)">
       <defs>
        <path id="DejaVuSans-32" d="M 1228 531 
L 3431 531 
L 3431 0 
L 469 0 
L 469 531 
Q 828 903 1448 1529 
Q 2069 2156 2228 2338 
Q 2531 2678 2651 2914 
Q 2772 3150 2772 3378 
Q 2772 3750 2511 3984 
Q 2250 4219 1831 4219 
Q 1534 4219 1204 4116 
Q 875 4013 500 3803 
L 500 4441 
Q 881 4594 1212 4672 
Q 1544 4750 1819 4750 
Q 2544 4750 2975 4387 
Q 3406 4025 3406 3419 
Q 3406 3131 3298 2873 
Q 3191 2616 2906 2266 
Q 2828 2175 2409 1742 
Q 1991 1309 1228 531 
z
" transform="scale(0.015625)"/>
        <path id="DejaVuSans-35" d="M 691 4666 
L 3169 4666 
L 3169 4134 
L 1269 4134 
L 1269 2991 
Q 1406 3038 1543 3061 
Q 1681 3084 1819 3084 
Q 2600 3084 3056 2656 
Q 3513 2228 3513 1497 
Q 3513 744 3044 326 
Q 2575 -91 1722 -91 
Q 1428 -91 1123 -41 
Q 819 9 494 109 
L 494 744 
Q 775 591 1075 516 
Q 1375 441 1709 441 
Q 2250 441 2565 725 
Q 2881 1009 2881 1497 
Q 2881 1984 2565 2268 
Q 2250 2553 1709 2553 
Q 1456 2553 1204 2497 
Q 953 2441 691 2322 
L 691 4666 
z
" transform="scale(0.015625)"/>
       </defs>
       <use xlink:href="#DejaVuSans-32"/>
       <use xlink:href="#DejaVuSans-35" transform="translate(63.623047 0)"/>
      </g>
     </g>
    </g>
    <g id="xtick_3">
     <g id="line2d_3">
      <g>
       <use xlink:href="#m2d9bd96c1f" x="193.185492" y="512.64" style="stroke: #000000; stroke-width: 0.8"/>
      </g>
     </g>
     <g id="text_3">
      <!-- 50 -->
      <g transform="translate(186.822992 527.238438) scale(0.1 -0.1)">
       <use xlink:href="#DejaVuSans-35"/>
       <use xlink:href="#DejaVuSans-30" transform="translate(63.623047 0)"/>
      </g>
     </g>
    </g>
    <g id="xtick_4">
     <g id="line2d_4">
      <g>
       <use xlink:href="#m2d9bd96c1f" x="248.29987" y="512.64" style="stroke: #000000; stroke-width: 0.8"/>
      </g>
     </g>
     <g id="text_4">
      <!-- 75 -->
      <g transform="translate(241.93737 527.238438) scale(0.1 -0.1)">
       <defs>
        <path id="DejaVuSans-37" d="M 525 4666 
L 3525 4666 
L 3525 4397 
L 1831 0 
L 1172 0 
L 2766 4134 
L 525 4134 
L 525 4666 
z
" transform="scale(0.015625)"/>
       </defs>
       <use xlink:href="#DejaVuSans-37"/>
       <use xlink:href="#DejaVuSans-35" transform="translate(63.623047 0)"/>
      </g>
     </g>
    </g>
    <g id="xtick_5">
     <g id="line2d_5">
      <g>
       <use xlink:href="#m2d9bd96c1f" x="303.414247" y="512.64" style="stroke: #000000; stroke-width: 0.8"/>
      </g>
     </g>
     <g id="text_5">
      <!-- 100 -->
      <g transform="translate(293.870497 527.238438) scale(0.1 -0.1)">
       <defs>
        <path id="DejaVuSans-31" d="M 794 531 
L 1825 531 
L 1825 4091 
L 703 3866 
L 703 4441 
L 1819 4666 
L 2450 4666 
L 2450 531 
L 3481 531 
L 3481 0 
L 794 0 
L 794 531 
z
" transform="scale(0.015625)"/>
       </defs>
       <use xlink:href="#DejaVuSans-31"/>
       <use xlink:href="#DejaVuSans-30" transform="translate(63.623047 0)"/>
       <use xlink:href="#DejaVuSans-30" transform="translate(127.246094 0)"/>
      </g>
     </g>
    </g>
    <g id="xtick_6">
     <g id="line2d_6">
      <g>
       <use xlink:href="#m2d9bd96c1f" x="358.528624" y="512.64" style="stroke: #000000; stroke-width: 0.8"/>
      </g>
     </g>
     <g id="text_6">
      <!-- 125 -->
      <g transform="translate(348.984874 527.238438) scale(0.1 -0.1)">
       <use xlink:href="#DejaVuSans-31"/>
       <use xlink:href="#DejaVuSans-32" transform="translate(63.623047 0)"/>
       <use xlink:href="#DejaVuSans-35" transform="translate(127.246094 0)"/>
      </g>
     </g>
    </g>
    <g id="xtick_7">
     <g id="line2d_7">
      <g>
       <use xlink:href="#m2d9bd96c1f" x="413.643001" y="512.64" style="stroke: #000000; stroke-width: 0.8"/>
      </g>
     </g>
     <g id="text_7">
      <!-- 150 -->
      <g transform="translate(404.099251 527.238438) scale(0.1 -0.1)">
       <use xlink:href="#DejaVuSans-31"/>
       <use xlink:href="#DejaVuSans-35" transform="translate(63.623047 0)"/>
       <use xlink:href="#DejaVuSans-30" transform="translate(127.246094 0)"/>
      </g>
     </g>
    </g>
    <g id="xtick_8">
     <g id="line2d_8">
      <g>
       <use xlink:href="#m2d9bd96c1f" x="468.757378" y="512.64" style="stroke: #000000; stroke-width: 0.8"/>
      </g>
     </g>
     <g id="text_8">
      <!-- 175 -->
      <g transform="translate(459.213628 527.238438) scale(0.1 -0.1)">
       <use xlink:href="#DejaVuSans-31"/>
       <use xlink:href="#DejaVuSans-37" transform="translate(63.623047 0)"/>
       <use xlink:href="#DejaVuSans-35" transform="translate(127.246094 0)"/>
      </g>
     </g>
    </g>
    <g id="text_9">
     <!-- Time (ms) -->
     <g transform="translate(257.401172 544.715781) scale(0.15 -0.15)">
      <defs>
       <path id="DejaVuSans-54" d="M -19 4666 
L 3928 4666 
L 3928 4134 
L 2272 4134 
L 2272 0 
L 1638 0 
L 1638 4134 
L -19 4134 
L -19 4666 
z
" transform="scale(0.015625)"/>
       <path id="DejaVuSans-69" d="M 603 3500 
L 1178 3500 
L 1178 0 
L 603 0 
L 603 3500 
z
M 603 4863 
L 1178 4863 
L 1178 4134 
L 603 4134 
L 603 4863 
z
" transform="scale(0.015625)"/>
       <path id="DejaVuSans-6d" d="M 3328 2828 
Q 3544 3216 3844 3400 
Q 4144 3584 4550 3584 
Q 5097 3584 5394 3201 
Q 5691 2819 5691 2113 
L 5691 0 
L 5113 0 
L 5113 2094 
Q 5113 2597 4934 2840 
Q 4756 3084 4391 3084 
Q 3944 3084 3684 2787 
Q 3425 2491 3425 1978 
L 3425 0 
L 2847 0 
L 2847 2094 
Q 2847 2600 2669 2842 
Q 2491 3084 2119 3084 
Q 1678 3084 1418 2786 
Q 1159 2488 1159 1978 
L 1159 0 
L 581 0 
L 581 3500 
L 1159 3500 
L 1159 2956 
Q 1356 3278 1631 3431 
Q 1906 3584 2284 3584 
Q 2666 3584 2933 3390 
Q 3200 3197 3328 2828 
z
" transform="scale(0.015625)"/>
       <path id="DejaVuSans-65" d="M 3597 1894 
L 3597 1613 
L 953 1613 
Q 991 1019 1311 708 
Q 1631 397 2203 397 
Q 2534 397 2845 478 
Q 3156 559 3463 722 
L 3463 178 
Q 3153 47 2828 -22 
Q 2503 -91 2169 -91 
Q 1331 -91 842 396 
Q 353 884 353 1716 
Q 353 2575 817 3079 
Q 1281 3584 2069 3584 
Q 2775 3584 3186 3129 
Q 3597 2675 3597 1894 
z
M 3022 2063 
Q 3016 2534 2758 2815 
Q 2500 3097 2075 3097 
Q 1594 3097 1305 2825 
Q 1016 2553 972 2059 
L 3022 2063 
z
" transform="scale(0.015625)"/>
       <path id="DejaVuSans-20" transform="scale(0.015625)"/>
       <path id="DejaVuSans-28" d="M 1984 4856 
Q 1566 4138 1362 3434 
Q 1159 2731 1159 2009 
Q 1159 1288 1364 580 
Q 1569 -128 1984 -844 
L 1484 -844 
Q 1016 -109 783 600 
Q 550 1309 550 2009 
Q 550 2706 781 3412 
Q 1013 4119 1484 4856 
L 1984 4856 
z
" transform="scale(0.015625)"/>
       <path id="DejaVuSans-73" d="M 2834 3397 
L 2834 2853 
Q 2591 2978 2328 3040 
Q 2066 3103 1784 3103 
Q 1356 3103 1142 2972 
Q 928 2841 928 2578 
Q 928 2378 1081 2264 
Q 1234 2150 1697 2047 
L 1894 2003 
Q 2506 1872 2764 1633 
Q 3022 1394 3022 966 
Q 3022 478 2636 193 
Q 2250 -91 1575 -91 
Q 1294 -91 989 -36 
Q 684 19 347 128 
L 347 722 
Q 666 556 975 473 
Q 1284 391 1588 391 
Q 1994 391 2212 530 
Q 2431 669 2431 922 
Q 2431 1156 2273 1281 
Q 2116 1406 1581 1522 
L 1381 1569 
Q 847 1681 609 1914 
Q 372 2147 372 2553 
Q 372 3047 722 3315 
Q 1072 3584 1716 3584 
Q 2034 3584 2315 3537 
Q 2597 3491 2834 3397 
z
" transform="scale(0.015625)"/>
       <path id="DejaVuSans-29" d="M 513 4856 
L 1013 4856 
Q 1481 4119 1714 3412 
Q 1947 2706 1947 2009 
Q 1947 1309 1714 600 
Q 1481 -109 1013 -844 
L 513 -844 
Q 928 -128 1133 580 
Q 1338 1288 1338 2009 
Q 1338 2731 1133 3434 
Q 928 4138 513 4856 
z
" transform="scale(0.015625)"/>
      </defs>
      <use xlink:href="#DejaVuSans-54"/>
      <use xlink:href="#DejaVuSans-69" transform="translate(57.958984 0)"/>
      <use xlink:href="#DejaVuSans-6d" transform="translate(85.742188 0)"/>
      <use xlink:href="#DejaVuSans-65" transform="translate(183.154297 0)"/>
      <use xlink:href="#DejaVuSans-20" transform="translate(244.677734 0)"/>
      <use xlink:href="#DejaVuSans-28" transform="translate(276.464844 0)"/>
      <use xlink:href="#DejaVuSans-6d" transform="translate(315.478516 0)"/>
      <use xlink:href="#DejaVuSans-73" transform="translate(412.890625 0)"/>
      <use xlink:href="#DejaVuSans-29" transform="translate(464.990234 0)"/>
     </g>
    </g>
   </g>
   <g id="matplotlib.axis_2">
    <g id="ytick_1">
     <g id="line2d_9">
      <defs>
       <path id="mb6f8e75dea" d="M 0 0 
L -3.5 0 
" style="stroke: #000000; stroke-width: 0.8"/>
      </defs>
      <g>
       <use xlink:href="#mb6f8e75dea" x="72" y="512.64" style="stroke: #000000; stroke-width: 0.8"/>
      </g>
     </g>
     <g id="text_10">
      <!-- 0.90 -->
      <g transform="translate(42.734375 516.439219) scale(0.1 -0.1)">
       <defs>
        <path id="DejaVuSans-2e" d="M 684 794 
L 1344 794 
L 1344 0 
L 684 0 
L 684 794 
z
" transform="scale(0.015625)"/>
        <path id="DejaVuSans-39" d="M 703 97 
L 703 672 
Q 941 559 1184 500 
Q 1428 441 1663 441 
Q 2288 441 2617 861 
Q 2947 1281 2994 2138 
Q 2813 1869 2534 1725 
Q 2256 1581 1919 1581 
Q 1219 1581 811 2004 
Q 403 2428 403 3163 
Q 403 3881 828 4315 
Q 1253 4750 1959 4750 
Q 2769 4750 3195 4129 
Q 3622 3509 3622 2328 
Q 3622 1225 3098 567 
Q 2575 -91 1691 -91 
Q 1453 -91 1209 -44 
Q 966 3 703 97 
z
M 1959 2075 
Q 2384 2075 2632 2365 
Q 2881 2656 2881 3163 
Q 2881 3666 2632 3958 
Q 2384 4250 1959 4250 
Q 1534 4250 1286 3958 
Q 1038 3666 1038 3163 
Q 1038 2656 1286 2365 
Q 1534 2075 1959 2075 
z
" transform="scale(0.015625)"/>
       </defs>
       <use xlink:href="#DejaVuSans-30"/>
       <use xlink:href="#DejaVuSans-2e" transform="translate(63.623047 0)"/>
       <use xlink:href="#DejaVuSans-39" transform="translate(95.410156 0)"/>
       <use xlink:href="#DejaVuSans-30" transform="translate(159.033203 0)"/>
      </g>
     </g>
    </g>
    <g id="ytick_2">
     <g id="line2d_10">
      <g>
       <use xlink:href="#mb6f8e75dea" x="72" y="424.024615" style="stroke: #000000; stroke-width: 0.8"/>
      </g>
     </g>
     <g id="text_11">
      <!-- 0.92 -->
      <g transform="translate(42.734375 427.823834) scale(0.1 -0.1)">
       <use xlink:href="#DejaVuSans-30"/>
       <use xlink:href="#DejaVuSans-2e" transform="translate(63.623047 0)"/>
       <use xlink:href="#DejaVuSans-39" transform="translate(95.410156 0)"/>
       <use xlink:href="#DejaVuSans-32" transform="translate(159.033203 0)"/>
      </g>
     </g>
    </g>
    <g id="ytick_3">
     <g id="line2d_11">
      <g>
       <use xlink:href="#mb6f8e75dea" x="72" y="335.409231" style="stroke: #000000; stroke-width: 0.8"/>
      </g>
     </g>
     <g id="text_12">
      <!-- 0.94 -->
      <g transform="translate(42.734375 339.20845) scale(0.1 -0.1)">
       <defs>
        <path id="DejaVuSans-34" d="M 2419 4116 
L 825 1625 
L 2419 1625 
L 2419 4116 
z
M 2253 4666 
L 3047 4666 
L 3047 1625 
L 3713 1625 
L 3713 1100 
L 3047 1100 
L 3047 0 
L 2419 0 
L 2419 1100 
L 313 1100 
L 313 1709 
L 2253 4666 
z
" transform="scale(0.015625)"/>
       </defs>
       <use xlink:href="#DejaVuSans-30"/>
       <use xlink:href="#DejaVuSans-2e" transform="translate(63.623047 0)"/>
       <use xlink:href="#DejaVuSans-39" transform="translate(95.410156 0)"/>
       <use xlink:href="#DejaVuSans-34" transform="translate(159.033203 0)"/>
      </g>
     </g>
    </g>
    <g id="ytick_4">
     <g id="line2d_12">
      <g>
       <use xlink:href="#mb6f8e75dea" x="72" y="246.793846" style="stroke: #000000; stroke-width: 0.8"/>
      </g>
     </g>
     <g id="text_13">
      <!-- 0.96 -->
      <g transform="translate(42.734375 250.593065) scale(0.1 -0.1)">
       <defs>
        <path id="DejaVuSans-36" d="M 2113 2584 
Q 1688 2584 1439 2293 
Q 1191 2003 1191 1497 
Q 1191 994 1439 701 
Q 1688 409 2113 409 
Q 2538 409 2786 701 
Q 3034 994 3034 1497 
Q 3034 2003 2786 2293 
Q 2538 2584 2113 2584 
z
M 3366 4563 
L 3366 3988 
Q 3128 4100 2886 4159 
Q 2644 4219 2406 4219 
Q 1781 4219 1451 3797 
Q 1122 3375 1075 2522 
Q 1259 2794 1537 2939 
Q 1816 3084 2150 3084 
Q 2853 3084 3261 2657 
Q 3669 2231 3669 1497 
Q 3669 778 3244 343 
Q 2819 -91 2113 -91 
Q 1303 -91 875 529 
Q 447 1150 447 2328 
Q 447 3434 972 4092 
Q 1497 4750 2381 4750 
Q 2619 4750 2861 4703 
Q 3103 4656 3366 4563 
z
" transform="scale(0.015625)"/>
       </defs>
       <use xlink:href="#DejaVuSans-30"/>
       <use xlink:href="#DejaVuSans-2e" transform="translate(63.623047 0)"/>
       <use xlink:href="#DejaVuSans-39" transform="translate(95.410156 0)"/>
       <use xlink:href="#DejaVuSans-36" transform="translate(159.033203 0)"/>
      </g>
     </g>
    </g>
    <g id="ytick_5">
     <g id="line2d_13">
      <g>
       <use xlink:href="#mb6f8e75dea" x="72" y="158.178462" style="stroke: #000000; stroke-width: 0.8"/>
      </g>
     </g>
     <g id="text_14">
      <!-- 0.98 -->
      <g transform="translate(42.734375 161.97768) scale(0.1 -0.1)">
       <defs>
        <path id="DejaVuSans-38" d="M 2034 2216 
Q 1584 2216 1326 1975 
Q 1069 1734 1069 1313 
Q 1069 891 1326 650 
Q 1584 409 2034 409 
Q 2484 409 2743 651 
Q 3003 894 3003 1313 
Q 3003 1734 2745 1975 
Q 2488 2216 2034 2216 
z
M 1403 2484 
Q 997 2584 770 2862 
Q 544 3141 544 3541 
Q 544 4100 942 4425 
Q 1341 4750 2034 4750 
Q 2731 4750 3128 4425 
Q 3525 4100 3525 3541 
Q 3525 3141 3298 2862 
Q 3072 2584 2669 2484 
Q 3125 2378 3379 2068 
Q 3634 1759 3634 1313 
Q 3634 634 3220 271 
Q 2806 -91 2034 -91 
Q 1263 -91 848 271 
Q 434 634 434 1313 
Q 434 1759 690 2068 
Q 947 2378 1403 2484 
z
M 1172 3481 
Q 1172 3119 1398 2916 
Q 1625 2713 2034 2713 
Q 2441 2713 2670 2916 
Q 2900 3119 2900 3481 
Q 2900 3844 2670 4047 
Q 2441 4250 2034 4250 
Q 1625 4250 1398 4047 
Q 1172 3844 1172 3481 
z
" transform="scale(0.015625)"/>
       </defs>
       <use xlink:href="#DejaVuSans-30"/>
       <use xlink:href="#DejaVuSans-2e" transform="translate(63.623047 0)"/>
       <use xlink:href="#DejaVuSans-39" transform="translate(95.410156 0)"/>
       <use xlink:href="#DejaVuSans-38" transform="translate(159.033203 0)"/>
      </g>
     </g>
    </g>
    <g id="ytick_6">
     <g id="line2d_14">
      <g>
       <use xlink:href="#mb6f8e75dea" x="72" y="69.563077" style="stroke: #000000; stroke-width: 0.8"/>
      </g>
     </g>
     <g id="text_15">
      <!-- 1.00 -->
      <g transform="translate(42.734375 73.362296) scale(0.1 -0.1)">
       <use xlink:href="#DejaVuSans-31"/>
       <use xlink:href="#DejaVuSans-2e" transform="translate(63.623047 0)"/>
       <use xlink:href="#DejaVuSans-30" transform="translate(95.410156 0)"/>
       <use xlink:href="#DejaVuSans-30" transform="translate(159.033203 0)"/>
      </g>
     </g>
    </g>
    <g id="text_16">
     <!-- $\lambda_{packets}$ -->
     <g transform="translate(34.084375 316.08) rotate(-90) scale(0.15 -0.15)">
      <defs>
       <path id="DejaVuSans-Oblique-3bb" d="M 2350 4316 
L 3125 0 
L 2516 0 
L 2038 2588 
L 328 0 
L -281 0 
L 1903 3356 
L 1794 3975 
Q 1725 4369 1391 4369 
L 1091 4369 
L 1184 4863 
L 1550 4856 
Q 2253 4847 2350 4316 
z
" transform="scale(0.015625)"/>
       <path id="DejaVuSans-Oblique-70" d="M 3175 2156 
Q 3175 2616 2975 2859 
Q 2775 3103 2400 3103 
Q 2144 3103 1911 2972 
Q 1678 2841 1497 2591 
Q 1319 2344 1212 1994 
Q 1106 1644 1106 1300 
Q 1106 863 1306 627 
Q 1506 391 1875 391 
Q 2147 391 2380 519 
Q 2613 647 2778 891 
Q 2956 1147 3065 1494 
Q 3175 1841 3175 2156 
z
M 1394 2969 
Q 1625 3272 1939 3428 
Q 2253 3584 2638 3584 
Q 3175 3584 3472 3232 
Q 3769 2881 3769 2247 
Q 3769 1728 3584 1258 
Q 3400 788 3053 416 
Q 2822 169 2531 39 
Q 2241 -91 1919 -91 
Q 1547 -91 1294 64 
Q 1041 219 916 525 
L 556 -1331 
L -19 -1331 
L 922 3500 
L 1497 3500 
L 1394 2969 
z
" transform="scale(0.015625)"/>
       <path id="DejaVuSans-Oblique-61" d="M 3438 1997 
L 3047 0 
L 2472 0 
L 2578 531 
Q 2325 219 2001 64 
Q 1678 -91 1281 -91 
Q 834 -91 548 182 
Q 263 456 263 884 
Q 263 1497 752 1853 
Q 1241 2209 2100 2209 
L 2900 2209 
L 2931 2363 
Q 2938 2388 2941 2417 
Q 2944 2447 2944 2509 
Q 2944 2788 2717 2942 
Q 2491 3097 2081 3097 
Q 1800 3097 1504 3025 
Q 1209 2953 897 2809 
L 997 3341 
Q 1322 3463 1633 3523 
Q 1944 3584 2234 3584 
Q 2853 3584 3176 3315 
Q 3500 3047 3500 2534 
Q 3500 2431 3484 2292 
Q 3469 2153 3438 1997 
z
M 2816 1759 
L 2241 1759 
Q 1534 1759 1195 1570 
Q 856 1381 856 984 
Q 856 709 1029 553 
Q 1203 397 1509 397 
Q 1978 397 2328 733 
Q 2678 1069 2791 1631 
L 2816 1759 
z
" transform="scale(0.015625)"/>
       <path id="DejaVuSans-Oblique-63" d="M 3431 3366 
L 3316 2797 
Q 3109 2947 2876 3022 
Q 2644 3097 2394 3097 
Q 2119 3097 1870 3000 
Q 1622 2903 1453 2725 
Q 1184 2453 1037 2087 
Q 891 1722 891 1331 
Q 891 859 1127 628 
Q 1363 397 1844 397 
Q 2081 397 2348 469 
Q 2616 541 2906 684 
L 2797 116 
Q 2547 13 2283 -39 
Q 2019 -91 1741 -91 
Q 1044 -91 669 257 
Q 294 606 294 1253 
Q 294 1797 489 2255 
Q 684 2713 1069 3078 
Q 1331 3328 1684 3456 
Q 2038 3584 2456 3584 
Q 2700 3584 2940 3529 
Q 3181 3475 3431 3366 
z
" transform="scale(0.015625)"/>
       <path id="DejaVuSans-Oblique-6b" d="M 1172 4863 
L 1747 4863 
L 1197 2028 
L 3169 3500 
L 3916 3500 
L 1716 1825 
L 3322 0 
L 2625 0 
L 1131 1709 
L 800 0 
L 225 0 
L 1172 4863 
z
" transform="scale(0.015625)"/>
       <path id="DejaVuSans-Oblique-65" d="M 3078 2063 
Q 3088 2113 3092 2166 
Q 3097 2219 3097 2272 
Q 3097 2653 2873 2875 
Q 2650 3097 2266 3097 
Q 1838 3097 1509 2826 
Q 1181 2556 1013 2059 
L 3078 2063 
z
M 3578 1613 
L 903 1613 
Q 884 1494 878 1425 
Q 872 1356 872 1306 
Q 872 872 1139 634 
Q 1406 397 1894 397 
Q 2269 397 2603 481 
Q 2938 566 3225 728 
L 3116 159 
Q 2806 34 2476 -28 
Q 2147 -91 1806 -91 
Q 1078 -91 686 257 
Q 294 606 294 1247 
Q 294 1794 489 2264 
Q 684 2734 1063 3103 
Q 1306 3334 1642 3459 
Q 1978 3584 2356 3584 
Q 2950 3584 3301 3228 
Q 3653 2872 3653 2272 
Q 3653 2128 3634 1964 
Q 3616 1800 3578 1613 
z
" transform="scale(0.015625)"/>
       <path id="DejaVuSans-Oblique-74" d="M 2706 3500 
L 2619 3053 
L 1472 3053 
L 1100 1153 
Q 1081 1047 1072 975 
Q 1063 903 1063 863 
Q 1063 663 1183 572 
Q 1303 481 1569 481 
L 2150 481 
L 2053 0 
L 1503 0 
Q 991 0 739 200 
Q 488 400 488 806 
Q 488 878 497 964 
Q 506 1050 525 1153 
L 897 3053 
L 409 3053 
L 500 3500 
L 978 3500 
L 1172 4494 
L 1747 4494 
L 1556 3500 
L 2706 3500 
z
" transform="scale(0.015625)"/>
       <path id="DejaVuSans-Oblique-73" d="M 3200 3397 
L 3091 2853 
Q 2863 2978 2609 3040 
Q 2356 3103 2088 3103 
Q 1634 3103 1373 2948 
Q 1113 2794 1113 2528 
Q 1113 2219 1719 2053 
Q 1766 2041 1788 2034 
L 1972 1978 
Q 2547 1819 2739 1644 
Q 2931 1469 2931 1166 
Q 2931 609 2489 259 
Q 2047 -91 1331 -91 
Q 1053 -91 747 -37 
Q 441 16 72 128 
L 184 722 
Q 500 559 806 475 
Q 1113 391 1394 391 
Q 1816 391 2080 572 
Q 2344 753 2344 1031 
Q 2344 1331 1650 1516 
L 1591 1531 
L 1394 1581 
Q 956 1697 753 1886 
Q 550 2075 550 2369 
Q 550 2928 970 3256 
Q 1391 3584 2113 3584 
Q 2397 3584 2667 3537 
Q 2938 3491 3200 3397 
z
" transform="scale(0.015625)"/>
      </defs>
      <use xlink:href="#DejaVuSans-Oblique-3bb" transform="translate(0 0.015625)"/>
      <use xlink:href="#DejaVuSans-Oblique-70" transform="translate(59.179688 -16.390625) scale(0.7)"/>
      <use xlink:href="#DejaVuSans-Oblique-61" transform="translate(103.613281 -16.390625) scale(0.7)"/>
      <use xlink:href="#DejaVuSans-Oblique-63" transform="translate(146.508789 -16.390625) scale(0.7)"/>
      <use xlink:href="#DejaVuSans-Oblique-6b" transform="translate(184.995117 -16.390625) scale(0.7)"/>
      <use xlink:href="#DejaVuSans-Oblique-65" transform="translate(225.532227 -16.390625) scale(0.7)"/>
      <use xlink:href="#DejaVuSans-Oblique-74" transform="translate(268.598633 -16.390625) scale(0.7)"/>
      <use xlink:href="#DejaVuSans-Oblique-73" transform="translate(296.044922 -16.390625) scale(0.7)"/>
     </g>
    </g>
   </g>
   <g id="line2d_15">
    <path d="M 115.52713 577 
L 115.637359 569.051083 
L 115.641768 569.051083 
L 115.751997 560.303795 
L 115.758611 560.303795 
L 115.866635 553.6987 
L 115.871044 553.6987 
L 115.981273 547.986185 
L 115.983478 547.986185 
L 116.091502 541.738122 
L 116.10032 541.738122 
L 116.210549 536.025607 
L 116.212753 536.025607 
L 116.320778 523.707997 
L 116.325187 523.707997 
L 116.422188 521.74432 
L 116.442029 521.74432 
L 116.466279 521.208772 
L 116.554462 521.208772 
L 116.664691 514.603677 
L 116.666896 514.603677 
L 116.777125 501.036454 
L 116.779329 501.036454 
L 116.889558 491.753618 
L 116.891762 491.753618 
L 117.001991 486.576652 
L 117.0064 486.576652 
L 117.11222 480.685621 
L 117.118834 480.685621 
L 117.226858 475.151622 
L 117.233472 475.151622 
L 117.3437 465.154721 
L 117.345905 465.154721 
L 117.453929 453.015628 
L 117.458338 453.015628 
L 117.559749 444.982404 
L 117.575181 444.982404 
L 117.683205 442.304662 
L 117.692023 442.304662 
L 117.800047 434.628471 
L 117.804457 434.628471 
L 117.914685 426.059699 
L 117.919094 426.059699 
L 118.027119 416.41983 
L 118.031528 416.41983 
L 118.139552 405.530349 
L 118.143961 405.530349 
L 118.251985 395.533448 
L 118.258599 395.533448 
L 118.368828 393.391255 
L 118.373237 393.391255 
L 118.426147 391.070546 
L 118.545194 391.070546 
L 118.651013 385.715064 
L 118.657627 385.715064 
L 118.767856 372.504873 
L 118.77006 372.504873 
L 118.880289 364.114617 
L 118.886903 364.114617 
L 118.997132 356.438426 
L 119.001541 356.438426 
L 119.11177 348.94075 
L 119.118383 348.94075 
L 119.228612 337.694237 
L 119.233021 337.694237 
L 119.325613 330.375077 
L 119.345455 330.375077 
L 119.453479 328.232884 
L 119.460092 328.232884 
L 119.565912 324.30553 
L 119.572526 324.30553 
L 119.645277 319.30708 
L 119.7048 319.30708 
L 119.812824 316.807855 
L 119.817234 316.807855 
L 119.826052 316.09379 
L 119.962736 316.09379 
L 120.01785 315.022694 
L 120.083987 315.022694 
L 120.189807 311.452372 
L 120.20083 311.452372 
L 120.311058 303.77618 
L 120.313263 303.77618 
L 120.419083 295.385925 
L 120.425696 295.385925 
L 120.535925 288.423797 
L 120.540334 288.423797 
L 120.650563 279.140961 
L 120.652768 279.140961 
L 120.760792 273.606962 
L 120.765201 273.606962 
L 120.866611 267.358899 
L 120.877634 267.358899 
L 120.987863 265.216706 
L 120.992272 265.216706 
L 121.102501 259.147159 
L 121.109115 259.147159 
L 121.219343 250.578387 
L 121.228162 250.578387 
L 121.333981 246.651033 
L 121.340595 246.651033 
L 121.448619 240.760002 
L 121.455233 240.760002 
L 121.54562 236.654133 
L 121.59853 236.654133 
L 121.708759 233.797875 
L 121.715373 233.797875 
L 121.825602 230.227553 
L 121.880716 230.227553 
L 121.982126 226.657232 
L 121.995354 226.657232 
L 122.096764 224.872071 
L 122.109992 224.872071 
L 122.22022 221.480265 
L 122.229039 221.480265 
L 122.334858 217.374395 
L 122.345881 217.374395 
L 122.451701 215.232202 
L 122.475951 215.232202 
L 122.583975 212.375945 
L 122.594998 212.375945 
L 122.705227 209.162655 
L 122.709636 209.162655 
L 122.81766 205.77085 
L 122.824274 205.77085 
L 122.934503 200.950916 
L 122.943321 200.950916 
L 123.046936 197.55911 
L 123.057959 197.55911 
L 123.165983 190.954015 
L 123.172597 190.954015 
L 123.280621 186.312597 
L 123.287235 186.312597 
L 123.395259 180.778598 
L 123.406282 180.778598 
L 123.514306 176.315696 
L 123.52092 176.315696 
L 123.624535 170.067633 
L 123.662013 170.067633 
L 123.767832 168.460988 
L 123.77665 168.460988 
L 123.880265 164.355118 
L 123.891288 164.355118 
L 123.997108 158.642603 
L 124.003722 158.642603 
L 124.11395 153.822669 
L 124.116155 153.822669 
L 124.226384 147.217574 
L 124.228588 147.217574 
L 124.338817 144.718349 
L 124.343226 144.718349 
L 124.415977 143.825768 
L 124.519592 143.825768 
L 124.625412 141.326543 
L 124.632026 141.326543 
L 124.742254 139.18435 
L 124.744459 139.18435 
L 124.848074 135.07848 
L 124.856892 135.07848 
L 124.962712 131.865191 
L 124.97153 131.865191 
L 124.989167 130.437062 
L 125.13026 130.437062 
L 125.198601 128.116353 
L 125.355126 128.116353 
L 125.355126 127.937837 
L 125.471969 127.937837 
L 125.579993 125.081579 
L 125.584402 125.081579 
L 125.694631 118.297968 
L 125.69904 118.297968 
L 125.807064 114.906163 
L 125.855565 114.906163 
L 125.917293 112.76397 
L 126.053977 112.76397 
L 126.159796 111.335841 
L 126.168614 111.335841 
L 126.278843 109.907712 
L 126.283252 109.907712 
L 126.386867 105.087778 
L 126.395686 105.087778 
L 126.422141 104.55223 
L 126.68669 104.55223 
L 126.721963 103.659649 
L 126.900533 103.659649 
L 126.944625 101.874488 
L 127.257675 101.874488 
L 127.275311 101.517456 
L 127.634657 101.517456 
L 127.744886 99.553779 
L 127.755908 99.553779 
L 127.866137 95.269393 
L 127.870546 95.269393 
L 127.90582 93.662748 
L 128.245324 93.662748 
L 128.351144 90.270943 
L 128.379803 90.270943 
L 128.490032 88.12875 
L 128.501055 88.12875 
L 128.512078 87.593202 
L 128.772218 87.593202 
L 128.882446 85.451008 
L 128.893469 85.451008 
L 128.99488 81.702171 
L 129.241792 81.702171 
L 129.290293 79.738494 
L 130.928292 79.738494 
L 130.928292 79.559978 
L 131.417708 79.559978 
L 131.523527 77.596301 
L 131.536755 77.596301 
L 131.589665 75.454108 
L 132.908 75.454108 
L 132.934455 74.918559 
L 136.812303 74.918559 
L 136.915918 73.133399 
L 136.926941 73.133399 
L 136.926941 72.954883 
L 186.199194 72.954883 
L 186.199194 72.776366 
L 189.942563 72.776366 
L 190.052791 70.991206 
L 190.063814 70.991206 
L 190.149793 69.563077 
L 190.149793 69.563077 
" clip-path="url(#pbbb5b1cc74)" style="fill: none; stroke: #ffd700; stroke-width: 2; stroke-linecap: square"/>
   </g>
   <g id="line2d_16">
    <path d="M 129.305725 577 
L 129.376271 574.585082 
L 129.418158 574.585082 
L 129.504137 570.657728 
L 129.546023 570.657728 
L 129.565865 568.158502 
L 129.673889 568.158502 
L 129.768686 561.731923 
L 129.797345 561.731923 
L 129.834823 559.946763 
L 129.942847 559.946763 
L 130.026621 557.983086 
L 130.103781 557.983086 
L 130.165509 553.877216 
L 130.242669 553.877216 
L 130.337466 551.913539 
L 130.359512 551.913539 
L 130.423444 550.48541 
L 130.487377 550.48541 
L 130.588787 549.414314 
L 130.661538 549.414314 
L 130.727676 547.093604 
L 130.804836 547.093604 
L 130.855541 542.809218 
L 130.923883 542.809218 
L 131.007657 537.810768 
L 131.047339 537.810768 
L 131.113476 534.775995 
L 131.173 534.775995 
L 131.270001 527.456835 
L 131.289842 527.456835 
L 131.395662 523.529481 
L 131.422117 523.529481 
L 131.499277 516.031806 
L 131.574233 516.031806 
L 131.682257 511.74742 
L 131.74178 511.74742 
L 131.852009 505.320841 
L 131.854214 505.320841 
L 131.929169 503.892712 
L 132.006329 503.892712 
L 132.116558 497.466133 
L 132.118763 497.466133 
L 132.228991 493.538779 
L 132.231196 493.538779 
L 132.33922 481.399685 
L 132.350243 481.399685 
L 132.451653 470.510204 
L 132.550859 470.510204 
L 132.661088 464.083625 
L 132.709589 464.083625 
L 132.819817 458.906658 
L 132.822022 458.906658 
L 132.905796 454.622272 
L 132.93666 454.622272 
L 133.031457 449.445306 
L 133.051298 449.445306 
L 133.157117 441.94763 
L 133.203414 441.94763 
L 133.309233 433.557374 
L 133.331279 433.557374 
L 133.399621 427.487827 
L 133.45694 427.487827 
L 133.540714 423.560474 
L 133.578191 423.560474 
L 133.686215 416.241314 
L 133.723693 416.241314 
L 133.752353 414.099121 
L 133.84274 414.099121 
L 133.941946 407.851058 
L 133.970606 407.851058 
L 134.05438 399.639318 
L 134.140358 399.639318 
L 134.226336 387.500224 
L 134.266019 387.500224 
L 134.323338 384.286935 
L 134.462226 384.286935 
L 134.466635 383.037322 
L 134.579068 383.037322 
L 134.673865 378.57442 
L 134.695911 378.57442 
L 134.797321 371.969325 
L 134.812753 371.969325 
L 134.920778 356.973974 
L 134.938414 356.973974 
L 135.048643 349.297782 
L 135.050847 349.297782 
L 135.053052 347.691137 
L 135.200759 347.691137 
L 135.209577 347.334105 
L 135.42783 347.334105 
L 135.489558 343.406751 
L 135.555695 343.406751 
L 135.604196 335.552044 
L 135.745289 335.552044 
L 135.747493 334.302431 
L 135.888586 334.302431 
L 135.998815 332.874302 
L 136.001019 332.874302 
L 136.082589 328.768432 
L 136.250136 328.768432 
L 136.287614 327.51882 
L 136.404457 327.51882 
L 136.514685 322.877402 
L 136.51689 322.877402 
L 136.51689 322.520369 
L 136.743961 322.520369 
L 136.843167 319.485596 
L 136.898281 319.485596 
L 136.935759 315.736758 
L 137.045988 315.736758 
L 137.151808 311.452372 
L 137.193694 311.452372 
L 137.284082 305.204309 
L 137.308332 305.204309 
L 137.407538 299.134762 
L 137.420766 299.134762 
L 137.530994 287.174185 
L 137.533199 287.174185 
L 137.586109 285.210508 
L 137.65886 285.210508 
L 137.747043 278.962445 
L 137.799953 278.962445 
L 137.86609 273.428446 
L 137.923409 273.428446 
L 138.004978 272.000317 
L 138.106389 272.000317 
L 138.205594 265.573738 
L 138.249686 265.573738 
L 138.346687 260.575288 
L 138.445893 260.575288 
L 138.551713 257.540514 
L 138.582577 257.540514 
L 138.582577 257.183482 
L 138.725874 257.183482 
L 138.836103 255.041289 
L 139.226313 255.041289 
L 139.26379 253.434645 
L 139.60109 253.434645 
L 139.676046 250.578387 
L 139.73116 250.578387 
L 139.73116 249.150258 
L 140.011141 249.150258 
L 140.119166 244.865872 
L 140.178689 244.865872 
L 140.222781 243.437744 
L 140.359464 243.437744 
L 140.427806 238.439293 
L 140.471898 238.439293 
L 140.513785 237.189681 
L 140.654877 237.189681 
L 140.657082 236.832649 
L 140.79597 236.832649 
L 140.864312 234.333423 
L 141.038473 234.333423 
L 141.126656 231.477166 
L 141.15752 231.477166 
L 141.159725 230.763102 
L 141.336091 230.763102 
L 141.336091 230.40607 
L 141.450729 230.40607 
L 141.455138 229.513489 
L 141.611663 229.513489 
L 141.721892 223.265426 
L 141.724096 223.265426 
L 141.814484 217.017363 
L 141.865189 217.017363 
L 141.975418 212.554461 
L 141.977622 212.554461 
L 142.065805 205.77085 
L 142.109897 205.77085 
L 142.202489 200.415367 
L 142.226739 200.415367 
L 142.310513 196.845046 
L 142.572858 196.845046 
L 142.680882 195.952465 
L 142.705132 195.952465 
L 142.799929 192.917692 
L 142.81977 192.917692 
L 142.824179 190.596983 
L 142.934408 190.596983 
L 143.044637 180.778598 
L 143.046841 180.778598 
L 143.15707 172.566858 
L 143.159275 172.566858 
L 143.159275 172.388342 
L 143.496575 172.388342 
L 143.500984 172.03131 
L 143.699396 172.03131 
L 143.80742 168.460988 
L 143.994809 168.460988 
L 144.080787 166.854343 
L 144.179993 166.854343 
L 144.279199 163.81957 
L 144.305654 163.81957 
L 144.307858 162.569957 
L 144.878843 162.569957 
L 144.97364 160.784796 
L 145.013322 160.784796 
L 145.097096 153.644153 
L 145.167643 153.644153 
L 145.227166 148.824219 
L 145.319758 148.824219 
L 145.429987 143.468736 
L 145.432192 143.468736 
L 145.54242 142.219124 
L 145.606353 142.219124 
L 145.608558 141.326543 
L 145.740832 141.326543 
L 145.743037 140.433963 
L 145.853265 140.433963 
L 145.923812 138.29177 
L 146.023018 138.29177 
L 146.029631 136.328093 
L 146.970985 136.328093 
L 147.052554 134.1859 
L 147.131919 134.1859 
L 147.215693 126.509708 
L 147.581652 126.509708 
L 147.641176 123.296419 
L 148.095318 123.296419 
L 148.13941 121.511258 
L 148.772123 121.511258 
L 148.855897 118.655 
L 155.002252 118.655 
L 155.072798 118.119452 
L 155.158777 118.119452 
L 155.242551 115.620227 
L 171.626953 115.620227 
L 171.677658 113.835066 
L 183.18554 113.835066 
L 183.192154 112.76397 
L 188.240631 112.76397 
L 188.295745 110.44326 
L 193.163447 110.44326 
L 193.163447 110.264744 
L 193.282494 110.264744 
L 193.357449 106.33739 
L 193.4302 106.33739 
L 193.4302 106.158874 
L 197.268366 106.158874 
L 197.268366 105.980358 
L 201.269669 105.980358 
L 201.309352 103.302617 
L 215.742705 103.302617 
L 215.747114 99.375263 
L 220.068081 99.375263 
L 220.129809 97.054554 
L 230.182672 97.054554 
L 230.26865 92.413136 
L 235.680882 92.413136 
L 235.762451 89.199846 
L 235.79552 89.199846 
L 235.797724 88.485782 
L 248.657011 88.485782 
L 248.663625 86.165073 
L 256.646391 86.165073 
L 256.6508 84.91546 
L 323.881522 84.91546 
L 323.912386 83.130299 
L 325.429134 83.130299 
L 325.431338 82.773267 
L 329.154865 82.773267 
L 329.216594 81.166622 
L 361.588574 81.166622 
L 361.617234 80.095526 
L 372.670973 80.095526 
L 372.670973 79.91701 
L 377.088942 79.91701 
L 377.159488 77.953333 
L 389.286856 77.953333 
L 389.28906 77.417785 
L 412.498827 77.417785 
L 412.507645 74.740043 
L 423.001422 74.740043 
L 423.001422 74.561527 
L 427.434823 74.561527 
L 427.437027 73.490431 
L 497.937134 73.490431 
L 497.943748 73.133399 
L 498.106886 73.133399 
L 498.109091 69.563077 
L 498.109091 69.563077 
" clip-path="url(#pbbb5b1cc74)" style="fill: none; stroke: #800080; stroke-width: 2; stroke-linecap: square"/>
   </g>
   <g id="patch_3">
    <path d="M 72 512.64 
L 72 69.12 
" style="fill: none; stroke: #000000; stroke-width: 0.8; stroke-linejoin: miter; stroke-linecap: square"/>
   </g>
   <g id="patch_4">
    <path d="M 518.4 512.64 
L 518.4 69.12 
" style="fill: none; stroke: #000000; stroke-width: 0.8; stroke-linejoin: miter; stroke-linecap: square"/>
   </g>
   <g id="patch_5">
    <path d="M 72 512.64 
L 518.4 512.64 
" style="fill: none; stroke: #000000; stroke-width: 0.8; stroke-linejoin: miter; stroke-linecap: square"/>
   </g>
   <g id="patch_6">
    <path d="M 72 69.12 
L 518.4 69.12 
" style="fill: none; stroke: #000000; stroke-width: 0.8; stroke-linejoin: miter; stroke-linecap: square"/>
   </g>
   <g id="text_17">
    <!-- Video Latency Cumulative Distribution -->
    <g transform="translate(179.706562 63.12) scale(0.12 -0.12)">
     <defs>
      <path id="DejaVuSans-56" d="M 1831 0 
L 50 4666 
L 709 4666 
L 2188 738 
L 3669 4666 
L 4325 4666 
L 2547 0 
L 1831 0 
z
" transform="scale(0.015625)"/>
      <path id="DejaVuSans-64" d="M 2906 2969 
L 2906 4863 
L 3481 4863 
L 3481 0 
L 2906 0 
L 2906 525 
Q 2725 213 2448 61 
Q 2172 -91 1784 -91 
Q 1150 -91 751 415 
Q 353 922 353 1747 
Q 353 2572 751 3078 
Q 1150 3584 1784 3584 
Q 2172 3584 2448 3432 
Q 2725 3281 2906 2969 
z
M 947 1747 
Q 947 1113 1208 752 
Q 1469 391 1925 391 
Q 2381 391 2643 752 
Q 2906 1113 2906 1747 
Q 2906 2381 2643 2742 
Q 2381 3103 1925 3103 
Q 1469 3103 1208 2742 
Q 947 2381 947 1747 
z
" transform="scale(0.015625)"/>
      <path id="DejaVuSans-6f" d="M 1959 3097 
Q 1497 3097 1228 2736 
Q 959 2375 959 1747 
Q 959 1119 1226 758 
Q 1494 397 1959 397 
Q 2419 397 2687 759 
Q 2956 1122 2956 1747 
Q 2956 2369 2687 2733 
Q 2419 3097 1959 3097 
z
M 1959 3584 
Q 2709 3584 3137 3096 
Q 3566 2609 3566 1747 
Q 3566 888 3137 398 
Q 2709 -91 1959 -91 
Q 1206 -91 779 398 
Q 353 888 353 1747 
Q 353 2609 779 3096 
Q 1206 3584 1959 3584 
z
" transform="scale(0.015625)"/>
      <path id="DejaVuSans-4c" d="M 628 4666 
L 1259 4666 
L 1259 531 
L 3531 531 
L 3531 0 
L 628 0 
L 628 4666 
z
" transform="scale(0.015625)"/>
      <path id="DejaVuSans-61" d="M 2194 1759 
Q 1497 1759 1228 1600 
Q 959 1441 959 1056 
Q 959 750 1161 570 
Q 1363 391 1709 391 
Q 2188 391 2477 730 
Q 2766 1069 2766 1631 
L 2766 1759 
L 2194 1759 
z
M 3341 1997 
L 3341 0 
L 2766 0 
L 2766 531 
Q 2569 213 2275 61 
Q 1981 -91 1556 -91 
Q 1019 -91 701 211 
Q 384 513 384 1019 
Q 384 1609 779 1909 
Q 1175 2209 1959 2209 
L 2766 2209 
L 2766 2266 
Q 2766 2663 2505 2880 
Q 2244 3097 1772 3097 
Q 1472 3097 1187 3025 
Q 903 2953 641 2809 
L 641 3341 
Q 956 3463 1253 3523 
Q 1550 3584 1831 3584 
Q 2591 3584 2966 3190 
Q 3341 2797 3341 1997 
z
" transform="scale(0.015625)"/>
      <path id="DejaVuSans-74" d="M 1172 4494 
L 1172 3500 
L 2356 3500 
L 2356 3053 
L 1172 3053 
L 1172 1153 
Q 1172 725 1289 603 
Q 1406 481 1766 481 
L 2356 481 
L 2356 0 
L 1766 0 
Q 1100 0 847 248 
Q 594 497 594 1153 
L 594 3053 
L 172 3053 
L 172 3500 
L 594 3500 
L 594 4494 
L 1172 4494 
z
" transform="scale(0.015625)"/>
      <path id="DejaVuSans-6e" d="M 3513 2113 
L 3513 0 
L 2938 0 
L 2938 2094 
Q 2938 2591 2744 2837 
Q 2550 3084 2163 3084 
Q 1697 3084 1428 2787 
Q 1159 2491 1159 1978 
L 1159 0 
L 581 0 
L 581 3500 
L 1159 3500 
L 1159 2956 
Q 1366 3272 1645 3428 
Q 1925 3584 2291 3584 
Q 2894 3584 3203 3211 
Q 3513 2838 3513 2113 
z
" transform="scale(0.015625)"/>
      <path id="DejaVuSans-63" d="M 3122 3366 
L 3122 2828 
Q 2878 2963 2633 3030 
Q 2388 3097 2138 3097 
Q 1578 3097 1268 2742 
Q 959 2388 959 1747 
Q 959 1106 1268 751 
Q 1578 397 2138 397 
Q 2388 397 2633 464 
Q 2878 531 3122 666 
L 3122 134 
Q 2881 22 2623 -34 
Q 2366 -91 2075 -91 
Q 1284 -91 818 406 
Q 353 903 353 1747 
Q 353 2603 823 3093 
Q 1294 3584 2113 3584 
Q 2378 3584 2631 3529 
Q 2884 3475 3122 3366 
z
" transform="scale(0.015625)"/>
      <path id="DejaVuSans-79" d="M 2059 -325 
Q 1816 -950 1584 -1140 
Q 1353 -1331 966 -1331 
L 506 -1331 
L 506 -850 
L 844 -850 
Q 1081 -850 1212 -737 
Q 1344 -625 1503 -206 
L 1606 56 
L 191 3500 
L 800 3500 
L 1894 763 
L 2988 3500 
L 3597 3500 
L 2059 -325 
z
" transform="scale(0.015625)"/>
      <path id="DejaVuSans-43" d="M 4122 4306 
L 4122 3641 
Q 3803 3938 3442 4084 
Q 3081 4231 2675 4231 
Q 1875 4231 1450 3742 
Q 1025 3253 1025 2328 
Q 1025 1406 1450 917 
Q 1875 428 2675 428 
Q 3081 428 3442 575 
Q 3803 722 4122 1019 
L 4122 359 
Q 3791 134 3420 21 
Q 3050 -91 2638 -91 
Q 1578 -91 968 557 
Q 359 1206 359 2328 
Q 359 3453 968 4101 
Q 1578 4750 2638 4750 
Q 3056 4750 3426 4639 
Q 3797 4528 4122 4306 
z
" transform="scale(0.015625)"/>
      <path id="DejaVuSans-75" d="M 544 1381 
L 544 3500 
L 1119 3500 
L 1119 1403 
Q 1119 906 1312 657 
Q 1506 409 1894 409 
Q 2359 409 2629 706 
Q 2900 1003 2900 1516 
L 2900 3500 
L 3475 3500 
L 3475 0 
L 2900 0 
L 2900 538 
Q 2691 219 2414 64 
Q 2138 -91 1772 -91 
Q 1169 -91 856 284 
Q 544 659 544 1381 
z
M 1991 3584 
L 1991 3584 
z
" transform="scale(0.015625)"/>
      <path id="DejaVuSans-6c" d="M 603 4863 
L 1178 4863 
L 1178 0 
L 603 0 
L 603 4863 
z
" transform="scale(0.015625)"/>
      <path id="DejaVuSans-76" d="M 191 3500 
L 800 3500 
L 1894 563 
L 2988 3500 
L 3597 3500 
L 2284 0 
L 1503 0 
L 191 3500 
z
" transform="scale(0.015625)"/>
      <path id="DejaVuSans-44" d="M 1259 4147 
L 1259 519 
L 2022 519 
Q 2988 519 3436 956 
Q 3884 1394 3884 2338 
Q 3884 3275 3436 3711 
Q 2988 4147 2022 4147 
L 1259 4147 
z
M 628 4666 
L 1925 4666 
Q 3281 4666 3915 4102 
Q 4550 3538 4550 2338 
Q 4550 1131 3912 565 
Q 3275 0 1925 0 
L 628 0 
L 628 4666 
z
" transform="scale(0.015625)"/>
      <path id="DejaVuSans-72" d="M 2631 2963 
Q 2534 3019 2420 3045 
Q 2306 3072 2169 3072 
Q 1681 3072 1420 2755 
Q 1159 2438 1159 1844 
L 1159 0 
L 581 0 
L 581 3500 
L 1159 3500 
L 1159 2956 
Q 1341 3275 1631 3429 
Q 1922 3584 2338 3584 
Q 2397 3584 2469 3576 
Q 2541 3569 2628 3553 
L 2631 2963 
z
" transform="scale(0.015625)"/>
      <path id="DejaVuSans-62" d="M 3116 1747 
Q 3116 2381 2855 2742 
Q 2594 3103 2138 3103 
Q 1681 3103 1420 2742 
Q 1159 2381 1159 1747 
Q 1159 1113 1420 752 
Q 1681 391 2138 391 
Q 2594 391 2855 752 
Q 3116 1113 3116 1747 
z
M 1159 2969 
Q 1341 3281 1617 3432 
Q 1894 3584 2278 3584 
Q 2916 3584 3314 3078 
Q 3713 2572 3713 1747 
Q 3713 922 3314 415 
Q 2916 -91 2278 -91 
Q 1894 -91 1617 61 
Q 1341 213 1159 525 
L 1159 0 
L 581 0 
L 581 4863 
L 1159 4863 
L 1159 2969 
z
" transform="scale(0.015625)"/>
     </defs>
     <use xlink:href="#DejaVuSans-56"/>
     <use xlink:href="#DejaVuSans-69" transform="translate(66.158203 0)"/>
     <use xlink:href="#DejaVuSans-64" transform="translate(93.941406 0)"/>
     <use xlink:href="#DejaVuSans-65" transform="translate(157.417969 0)"/>
     <use xlink:href="#DejaVuSans-6f" transform="translate(218.941406 0)"/>
     <use xlink:href="#DejaVuSans-20" transform="translate(280.123047 0)"/>
     <use xlink:href="#DejaVuSans-4c" transform="translate(311.910156 0)"/>
     <use xlink:href="#DejaVuSans-61" transform="translate(367.623047 0)"/>
     <use xlink:href="#DejaVuSans-74" transform="translate(428.902344 0)"/>
     <use xlink:href="#DejaVuSans-65" transform="translate(468.111328 0)"/>
     <use xlink:href="#DejaVuSans-6e" transform="translate(529.634766 0)"/>
     <use xlink:href="#DejaVuSans-63" transform="translate(593.013672 0)"/>
     <use xlink:href="#DejaVuSans-79" transform="translate(647.994141 0)"/>
     <use xlink:href="#DejaVuSans-20" transform="translate(707.173828 0)"/>
     <use xlink:href="#DejaVuSans-43" transform="translate(738.960938 0)"/>
     <use xlink:href="#DejaVuSans-75" transform="translate(808.785156 0)"/>
     <use xlink:href="#DejaVuSans-6d" transform="translate(872.164062 0)"/>
     <use xlink:href="#DejaVuSans-75" transform="translate(969.576172 0)"/>
     <use xlink:href="#DejaVuSans-6c" transform="translate(1032.955078 0)"/>
     <use xlink:href="#DejaVuSans-61" transform="translate(1060.738281 0)"/>
     <use xlink:href="#DejaVuSans-74" transform="translate(1122.017578 0)"/>
     <use xlink:href="#DejaVuSans-69" transform="translate(1161.226562 0)"/>
     <use xlink:href="#DejaVuSans-76" transform="translate(1189.009766 0)"/>
     <use xlink:href="#DejaVuSans-65" transform="translate(1248.189453 0)"/>
     <use xlink:href="#DejaVuSans-20" transform="translate(1309.712891 0)"/>
     <use xlink:href="#DejaVuSans-44" transform="translate(1341.5 0)"/>
     <use xlink:href="#DejaVuSans-69" transform="translate(1418.501953 0)"/>
     <use xlink:href="#DejaVuSans-73" transform="translate(1446.285156 0)"/>
     <use xlink:href="#DejaVuSans-74" transform="translate(1498.384766 0)"/>
     <use xlink:href="#DejaVuSans-72" transform="translate(1537.59375 0)"/>
     <use xlink:href="#DejaVuSans-69" transform="translate(1578.707031 0)"/>
     <use xlink:href="#DejaVuSans-62" transform="translate(1606.490234 0)"/>
     <use xlink:href="#DejaVuSans-75" transform="translate(1669.966797 0)"/>
     <use xlink:href="#DejaVuSans-74" transform="translate(1733.345703 0)"/>
     <use xlink:href="#DejaVuSans-69" transform="translate(1772.554688 0)"/>
     <use xlink:href="#DejaVuSans-6f" transform="translate(1800.337891 0)"/>
     <use xlink:href="#DejaVuSans-6e" transform="translate(1861.519531 0)"/>
    </g>
   </g>
   <g id="legend_1">
    <g id="patch_7">
     <path d="M 454.276562 507.64 
L 511.4 507.64 
Q 513.4 507.64 513.4 505.64 
L 513.4 462.605625 
Q 513.4 460.605625 511.4 460.605625 
L 454.276562 460.605625 
Q 452.276562 460.605625 452.276562 462.605625 
L 452.276562 505.64 
Q 452.276562 507.64 454.276562 507.64 
z
" style="fill: #ffffff; opacity: 0.8; stroke: #cccccc; stroke-linejoin: miter"/>
    </g>
    <g id="text_18">
     <!-- Protocols -->
     <g transform="translate(460.086719 472.204063) scale(0.1 -0.1)">
      <defs>
       <path id="DejaVuSans-50" d="M 1259 4147 
L 1259 2394 
L 2053 2394 
Q 2494 2394 2734 2622 
Q 2975 2850 2975 3272 
Q 2975 3691 2734 3919 
Q 2494 4147 2053 4147 
L 1259 4147 
z
M 628 4666 
L 2053 4666 
Q 2838 4666 3239 4311 
Q 3641 3956 3641 3272 
Q 3641 2581 3239 2228 
Q 2838 1875 2053 1875 
L 1259 1875 
L 1259 0 
L 628 0 
L 628 4666 
z
" transform="scale(0.015625)"/>
      </defs>
      <use xlink:href="#DejaVuSans-50"/>
      <use xlink:href="#DejaVuSans-72" transform="translate(58.552734 0)"/>
      <use xlink:href="#DejaVuSans-6f" transform="translate(97.416016 0)"/>
      <use xlink:href="#DejaVuSans-74" transform="translate(158.597656 0)"/>
      <use xlink:href="#DejaVuSans-6f" transform="translate(197.806641 0)"/>
      <use xlink:href="#DejaVuSans-63" transform="translate(258.988281 0)"/>
      <use xlink:href="#DejaVuSans-6f" transform="translate(313.96875 0)"/>
      <use xlink:href="#DejaVuSans-6c" transform="translate(375.150391 0)"/>
      <use xlink:href="#DejaVuSans-73" transform="translate(402.933594 0)"/>
     </g>
    </g>
    <g id="line2d_17">
     <path d="M 456.276562 483.382187 
L 466.276562 483.382187 
L 466.276562 483.382187 
L 476.276562 483.382187 
L 476.276562 483.382187 
" style="fill: none; stroke: #ffd700; stroke-width: 2; stroke-linecap: square"/>
    </g>
    <g id="text_19">
     <!-- UDP -->
     <g transform="translate(484.276562 486.882187) scale(0.1 -0.1)">
      <defs>
       <path id="DejaVuSans-55" d="M 556 4666 
L 1191 4666 
L 1191 1831 
Q 1191 1081 1462 751 
Q 1734 422 2344 422 
Q 2950 422 3222 751 
Q 3494 1081 3494 1831 
L 3494 4666 
L 4128 4666 
L 4128 1753 
Q 4128 841 3676 375 
Q 3225 -91 2344 -91 
Q 1459 -91 1007 375 
Q 556 841 556 1753 
L 556 4666 
z
" transform="scale(0.015625)"/>
      </defs>
      <use xlink:href="#DejaVuSans-55"/>
      <use xlink:href="#DejaVuSans-44" transform="translate(73.193359 0)"/>
      <use xlink:href="#DejaVuSans-50" transform="translate(150.195312 0)"/>
     </g>
    </g>
    <g id="line2d_18">
     <path d="M 456.276562 498.060313 
L 466.276562 498.060313 
L 466.276562 498.060313 
L 476.276562 498.060313 
L 476.276562 498.060313 
" style="fill: none; stroke: #800080; stroke-width: 2; stroke-linecap: square"/>
    </g>
    <g id="text_20">
     <!-- QUIC -->
     <g transform="translate(484.276562 501.560313) scale(0.1 -0.1)">
      <defs>
       <path id="DejaVuSans-51" d="M 2522 4238 
Q 1834 4238 1429 3725 
Q 1025 3213 1025 2328 
Q 1025 1447 1429 934 
Q 1834 422 2522 422 
Q 3209 422 3611 934 
Q 4013 1447 4013 2328 
Q 4013 3213 3611 3725 
Q 3209 4238 2522 4238 
z
M 3406 84 
L 4238 -825 
L 3475 -825 
L 2784 -78 
Q 2681 -84 2626 -87 
Q 2572 -91 2522 -91 
Q 1538 -91 948 567 
Q 359 1225 359 2328 
Q 359 3434 948 4092 
Q 1538 4750 2522 4750 
Q 3503 4750 4090 4092 
Q 4678 3434 4678 2328 
Q 4678 1516 4351 937 
Q 4025 359 3406 84 
z
" transform="scale(0.015625)"/>
       <path id="DejaVuSans-49" d="M 628 4666 
L 1259 4666 
L 1259 0 
L 628 0 
L 628 4666 
z
" transform="scale(0.015625)"/>
      </defs>
      <use xlink:href="#DejaVuSans-51"/>
      <use xlink:href="#DejaVuSans-55" transform="translate(78.710938 0)"/>
      <use xlink:href="#DejaVuSans-49" transform="translate(151.904297 0)"/>
      <use xlink:href="#DejaVuSans-43" transform="translate(181.396484 0)"/>
     </g>
    </g>
   </g>
  </g>
 </g>
 <defs>
  <clipPath id="pbbb5b1cc74">
   <rect x="72" y="69.12" width="446.4" height="443.52"/>
  </clipPath>
 </defs>
</svg>
